<svg id="Layer_1" data-name="Layer 1" height="300" width="450" xmlns="http://www.w3.org/2000/svg" viewBox="0 0 300 450"><defs><style>.cls-1{fill:#94a8ca;}.cls-2{fill:#94abcd;}.cls-3{fill:#58954a;}.cls-4{fill:#93a5c7;}.cls-5{fill:#5797d7;}.cls-6{fill:#92b2d5;}.cls-7{fill:#e7eaeb;}.cls-8{fill:#94aacd;}.cls-9{fill:#9fb3d2;}.cls-10{fill:#99aece;}.cls-11{fill:#99aecf;}.cls-12{fill:#99accc;}.cls-13{fill:#f2f5f8;}.cls-14{fill:#f5f7f9;}.cls-15{fill:#090909;}.cls-16{fill:#f0f3f6;}.cls-17{fill:#eef2f6;}.cls-18{fill:#edf1f6;}.cls-19{fill:#f2f4f8;}.cls-20{fill:#f0f2f7;}.cls-21{fill:#f1f3f7;}.cls-22{fill:#eff2f7;}.cls-23{fill:#9eb2d1;}.cls-24{fill:#a0b5d4;}.cls-25{fill:#a3b6d4;}.cls-26{fill:#e7ebf2;}.cls-27{fill:#f1f0f3;}.cls-28{fill:#a8bad7;}.cls-29{fill:#aab9d5;}.cls-30{fill:#a2b4d2;}.cls-31{fill:#e2ecf5;}.cls-32{fill:#242527;}.cls-33{fill:#a7bfdd;}.cls-34{fill:#a5b9d7;}.cls-35{fill:#44484f;}.cls-36{fill:#4b4e54;}.cls-37{fill:#1e2125;}.cls-38{fill:#a3bfde;}.cls-39{fill:#68a15c;}.cls-40{fill:#7799bd;}.cls-41{fill:#93a3c4;}.cls-42{fill:#377d22;}.cls-43{fill:#5c5a39;}.cls-44{fill:#93a3c5;}.cls-45{fill:#a5c254;}.cls-46{fill:#5d6b75;}.cls-47{fill:#bfe161;}.cls-48{fill:#5c5638;}.cls-49{fill:#9eb0cf;}.cls-50{fill:#a5b8d5;}.cls-51{fill:#a3b5d2;}.cls-52{fill:#ebebeb;}.cls-53{fill:#292c30;}.cls-54{fill:#3f444c;}.cls-55{fill:#444951;}.cls-56{fill:#3e424b;}.cls-57{fill:#272a2f;}.cls-58{fill:#202123;}.cls-59{fill:#3b3f47;}.cls-60{fill:#9ab0d2;}.cls-61{fill:#f3f3f3;}.cls-62{fill:#dadada;}.cls-63{fill:#535353;}.cls-64{fill:#555;}.cls-65{fill:#b8b9b9;}.cls-66{fill:#b0c1da;}.cls-67{fill:#adbed8;}.cls-68{fill:#b0c0da;}.cls-69{fill:#5e9851;}.cls-70{fill:#a0abb8;}.cls-71{fill:#7c8a96;}.cls-72{fill:#9fabb5;}.cls-73{fill:#93a3c3;}.cls-74{fill:#636141;}.cls-75{fill:#839199;}.cls-76{fill:#909ca7;}.cls-77{fill:#919da8;}.cls-78{fill:#828f9b;}.cls-79{fill:#aebdd7;}.cls-80{fill:#a8b8d3;}.cls-81{fill:#a8b9d5;}.cls-82{fill:#292929;}.cls-83{fill:#4c4c4c;}.cls-84{fill:#2e2e2e;}.cls-85{fill:#bbb5aa;}.cls-86{fill:#a3a1a2;}.cls-87{fill:#aaa7a5;}.cls-88{fill:#bdc7da;}.cls-89{fill:#848387;}.cls-90{fill:#95979a;}.cls-91{fill:#7f7d80;}.cls-92{fill:#a5a1a2;}.cls-93{fill:#dcddd9;}.cls-94{fill:#c8d2db;}.cls-95{fill:#c8aa92;}.cls-96{fill:#95989e;}.cls-97{fill:#c9ab84;}.cls-98{fill:#92a6c2;}.cls-99{fill:#9d9a9c;}.cls-100{fill:#868694;}.cls-101{fill:#887d80;}.cls-102{fill:#bedf62;}.cls-103{fill:#606e79;}.cls-104{fill:#b3c1da;}.cls-105{fill:#b6c3dc;}.cls-106{fill:#b9c6dd;}.cls-107{fill:#bbc7dd;}.cls-108{fill:#bfcbe0;}.cls-109{fill:#bfcbdf;}.cls-110{fill:#c7d2e4;}.cls-111{fill:#cfd8e7;}.cls-112{fill:#cfd9e8;}.cls-113{fill:#d5deea;}.cls-114{fill:#f2f2e8;}</style></defs><path class="cls-1" d="M726.05,445.09V384.88c1-1.17,2.3-1.32,3.7-1.32,9.7-.06,19.41-.08,29.11,0a5.34,5.34,0,0,1,3.77,1.25,6.51,6.51,0,0,1,2.8,2.84c3.53,7,10.11,10.83,16.49,14.69a44.62,44.62,0,0,0,24.43,6.3c11.54-.26,21.65-4.33,30.73-11.33a32,32,0,0,0,9.44-10.78,6,6,0,0,1,3.14-2.94c1.9-.89,3.93-.69,5.93-.69q42.49,0,85,0h328.28c2.12,0,4.23-.09,6.34.09,3,.26,3.66,1.17,2.74,4-.29.88-.55,1.76-.75,2.65-1.32,5-4.5,9.18-6.91,13.68-5.32,9.95-10.91,19.77-16.34,29.67-2.84,4.95-5.37,10.06-8.25,15-.86,1.46-1.47,3.26-3.77,3.13-2.27-.91-3.09-3-4.06-4.9-7-13.28-14.46-26.34-21.47-39.62-1.49-2.82-3.21-5.51-4.69-8.34-.42-.79-.71-1.89-1.82-1.93s-1.43,1.07-1.87,1.85c-3.37,6-6.66,12.07-10,18.1-5.1,9.17-10.11,18.39-15.21,27.56-.9,1.62-1.81,3.41-4.32,2.64-3.08-.07-6.14,0-9.2,0q-217.86,0-435.71,0C731,446.43,728.22,447.27,726.05,445.09Z" transform="translate(-726 -325.84)"/><path class="cls-2" d="M1275.58,390.54a12,12,0,0,1,.36-1.49c1.91-4.78,1.91-4.78-3.28-4.78H854.43c-1.78,0-3.61-.27-5.29.6-1.3-1.23-.68-2.67-.41-4,.52-2.61,1.67-5.08,2.14-7.69,1.5-8.31.13-16.38-2.56-24.3a5.08,5.08,0,0,0-2.43-3.08c-3.19-3-4.79-7.15-8.25-10-2.56-2.08-4.72-4.61-7.66-6.32-1.25-.73-2.89-1.62-1.77-3.6q244.44,0,488.88-.06c2.38,0,2.93.52,2.92,2.83-.12,17.71-.06,35.43-.06,53.14-1.8.27-2.32-1.15-3-2.23-3.3-5.48-6.19-11.17-9.24-16.78-1.77-3.26-3.64-6.46-5.46-9.7-1.41-2.51-2.44-2.52-4-.13-2.68,4.17-4.93,8.58-7.3,12.91-3.94,7.24-8,14.41-11.89,21.68C1278.35,388.94,1277.79,390.7,1275.58,390.54Z" transform="translate(-726 -325.84)"/><path class="cls-3" d="M1319.94,541.55V674.88c-1,1-2.26.92-3.55.78-6.92-.75-13.83-1.56-20.76-2.19-8.19-.73-16.38-1.59-24.58-2.1-8.84-.55-17.67-1.3-26.52-1.72-7.16-.33-14.34-.53-21.5-1-2-.77-3.07-2.44-4.14-4a265.37,265.37,0,0,0-101.17-90.19A272.85,272.85,0,0,0,1069.17,555c-1.63-.46-3.71-.73-3.5-3.21.53-1.47,1.83-2.17,3.11-2.92A261.48,261.48,0,0,1,1115,527.53a222.36,222.36,0,0,1,22.06-6.68,11.5,11.5,0,0,1,6,4.46,30.51,30.51,0,0,1,.8,3.5,13.91,13.91,0,0,1,1-3.54c2.92-2.33,5.85-4.63,6.66-8.55a1.53,1.53,0,0,1,2.24-1c1.86,1.33,3.89.7,5.82.37a239.52,239.52,0,0,1,45.62-3.48c1.06,0,2.11.16,3.16.21,5.56-.51,11,.24,16.52.9a2.45,2.45,0,0,1,1.64,1.74c.8,4.15,3.43,7.1,6.56,9.75a22.44,22.44,0,0,1,.82,3c.43-.95.53-2,1-2.9s1.74-1.45,2.63-2.16a9,9,0,0,0,3.63-5.91c.17-1.28.2-2.75,2.13-2.84a9.82,9.82,0,0,0,4.73,2.14A270.69,270.69,0,0,1,1301,531.68c5.35,2.17,10.57,4.6,15.81,7A6.4,6.4,0,0,1,1319.94,541.55Z" transform="translate(-726 -325.84)"/><path class="cls-4" d="M726.05,445.09q224.36,0,448.7,0c1.71,0,3.68-.66,5,1.18l0,.38c-.2.61-.26,1.25-.44,1.87a5.55,5.55,0,0,1-.79,1.43c-1.42,2-3,3.89-3.29,6.38a30.1,30.1,0,0,1-1.39,5c-3.56,4-5.53,8.88-8.08,13.42-4.17,7.43-8.31,14.87-12.35,22.36-1.1,2-2.06,4.32-4.64,5.18-1.87.36-3.78.35-5.66.71a7.32,7.32,0,0,0-4.63,2.43c-1.59,2-3.72,2.46-6.16,2.46q-46.93,0-93.89,0a11.23,11.23,0,0,1-4.34-.69c-2.39-1.15-5.07-1.05-7.59-1.6-2.13-1.71-3.81-4-6.53-4.95-2.34-1.41-4.34-3-5.07-5.85a4.45,4.45,0,0,0-7.41-1.85A33.44,33.44,0,0,1,999,499.2c-1.82,1-2.08,2.94-2.75,4.64-.87,3.21-3.11,4.17-6.37,4.09-5.87-.15-11.74,0-17.6-.06-1.92,0-3.8-.16-5.13-1.77-3.38-3.65-5.86-3.8-9.59-.44-1.73,1.56-3.82,1.58-5.92,1.59-11.51,0-23,0-34.52,0-13.83,0-27.66-.06-41.49,0a14.48,14.48,0,0,1-10.6-3.92,7.48,7.48,0,0,0-4.06-2.23,22.68,22.68,0,0,1-9.14-5.34c-.72-1.25-.36-2.57-.24-3.88a11.8,11.8,0,0,0-2.44-8.92c-3-3.75-7.38-3.55-10.25.33-1,1.43-1.36,3.21-2.53,4.55-1.53,1.45-3.34,1-5.08.61-22.73-5.59-43.67-1.18-63.19,10.77-15.18,9.29-27.54,21.47-38.18,35.38-.95,1.25-1.72,2.92-3.85,2.6Z" transform="translate(-726 -325.84)"/><path class="cls-3" d="M852.43,495.44l8,4.4a17,17,0,0,1,2.78,1.43C883,513.84,896.79,531.62,909,550.8a6.14,6.14,0,0,1,1.33,3.72c-.4,2.38-2.46,2.9-4.34,3.51a263.83,263.83,0,0,0-38.39,16,270.62,270.62,0,0,0-48,31.29,279.54,279.54,0,0,0-42.42,43.29A206.74,206.74,0,0,0,764,667.39c-1.14,1.82-2.15,3.78-4.23,4.86-8,1.2-16.13,1.73-24.18,2.66-2,.23-4,.52-6,.64-1.25.08-2.55.34-3.59-.67V537.25c6.56-8.28,13.21-16.49,21.07-23.68C761.73,500.21,778,489.7,798.18,486a76.77,76.77,0,0,1,33.58,1.18c1.26.33,2.59,1.1,3.94.15.88.48.92,1.3.91,2.14-.07,4.34,1.35,8,5.09,10.65a3.5,3.5,0,0,1,1.28,1.72,24.83,24.83,0,0,1,.63,3.14c.63-1,.54-2.1.94-3,2.07-2.35,4.87-4,6.74-6.53A.87.87,0,0,1,852.43,495.44Z" transform="translate(-726 -325.84)"/><path class="cls-5" d="M726.05,674.88c8-1.55,16.19-1.89,24.28-2.93,3.31-.43,6.67-.6,10-.89,3-2.28,6.62-2,10-2.25,7.26-.5,14.52-1,21.79-1.41,12.11-.66,24.25-1,36.37-1.45q10.46-.41,20.89-.41,180.87,0,361.74,0c3.8,0,7.64-.26,11.07,1.84,10,.47,20,.8,30,1.45,16.73,1.08,33.47,2.1,50.12,4.07,5.86.7,11.72,1.33,17.59,2,0,3.27-.06,6.55,0,9.83,0,1.07-.2,1.44-1.31,1.24a9.24,9.24,0,0,0-1.58,0h-591Z" transform="translate(-726 -325.84)"/><path class="cls-6" d="M1319.94,541.55c-18.79-9-38.23-16.33-58.69-20.93-5-1.13-10.1-2.16-15.19-3-2.06-.34-3.06-1.09-3-3.1-1-.61-1.12-1.64-1.31-2.66a13.55,13.55,0,0,0-1.89-4.84c-2.9-4.54-7.92-4.63-11.05-.23a15.06,15.06,0,0,0-1.93,4.83c-.29,1.06-.28,2.29-1.54,2.86-5.72.33-11.38-.62-17.09-.69-1.35-1.38-.45-2.7.23-3.93,5.33-9.62,10.44-19.35,16-28.86,4.91-9.4,10.22-18.6,15.26-27.94.53-1,1-2.09,2.23-2.45,3.08-2.39,3.79-6.2,5.83-9.22,1.94-2.86,3.27-6.12,4.86-9.2,3.45,3.2,5.8,7.23,8.73,10.82,4,4.9,4.45,5,8.61.26,4.32-4.88,8.75-9.68,13.22-14.44,4-4.25,6.27-4.19,10.09.12,8.31,9.37,16.53,18.83,24.78,28.25,1,1.16,1,2.69,1.83,3.86Z" transform="translate(-726 -325.84)"/><path class="cls-7" d="M1319.94,461.07q-11.1-12.58-22.21-25.18c-2-2.33-4.09-4.68-6.18-7-2.71-3-3.73-3.05-6.57,0q-7,7.49-13.86,15.15c-5.25,5.89-5.87,5.92-10.63-.19q-3.15-4-6.32-8.06c-.85-1.07-1.68-2.13-1.49-3.59,7.8-13.8,15.7-27.55,22.9-41.66,2.83-3.61,4.55-7.83,6.79-11.75,5-8.77,9.82-17.66,14.69-26.51.71-1.28,1.38-2.68,3.12-2.72,1.91,0,2.59,1.48,3.34,2.86q7.41,13.56,14.87,27.11c.44.8,1,1.52,1.55,2.28Z" transform="translate(-726 -325.84)"/><path class="cls-8" d="M762.85,386.11a6.94,6.94,0,0,0-4.76-1.24c-10.68,0-21.36,0-32,0,0-19,0-38,0-57,0-1.69.33-2.06,2.1-2,18.14.08,36.28,0,54.42,0,.64,1.62-.5,2.6-1.6,3.25-6.33,3.78-10.81,9.17-14.56,15.24a4.31,4.31,0,0,1-1.53,1.5c-1.56.93-1.41,2.59-1.93,4-4,10.72-3.23,21.37.36,32C763.76,383.34,764.38,384.83,762.85,386.11Z" transform="translate(-726 -325.84)"/><path class="cls-9" d="M793.31,325.9h24.74c2.23,1.27,5.25.37,7.19,2.45a109.71,109.71,0,0,1,11,8.59c5.7,5.42,8.12,12.29,9.94,19.42,1.2,4.73,2,9.56.75,14.49a21.52,21.52,0,0,1-2.26,5,1,1,0,0,1-1.6.33c-1.08-1.55-.49-3.11-.08-4.7,1-3.92,1.3-7.85-.15-11.75a3.48,3.48,0,0,1-.35-1.38c-.59-6.52-3.71-11.9-8.1-16.7-11.55-12.91-33-16.16-47.67-7.32-3.76,2.26-6.72,5.19-9.84,8.06-3.47,2.23-4.89,5.89-6.16,9.35-1.79,4.9-3.61,9.91-3.15,15.31a10.62,10.62,0,0,0,.81,4.1,4.71,4.71,0,0,1-.28,5.18c-3.21-.47-3-3.29-3.58-5.3-1.62-5.37-.53-10.73.89-16a75.92,75.92,0,0,1,2.86-8.72c2.15-5.3,6.41-8.94,10.53-12.72,2.23-2.05,4.91-3.46,7.3-5.29C788.05,326.27,791.07,327.17,793.31,325.9Z" transform="translate(-726 -325.84)"/><path class="cls-10" d="M793.31,325.9c-1.63,2-4.42,1.68-6.35,3.07a40.33,40.33,0,0,0-16.23,13.75c-2.9,4.14-4.1,9.12-5.26,14-3.38,14.09,1.82,26,11.09,36.31a30.44,30.44,0,0,0,12.92,8c2.17.73,4.14,2,6.52,2.26a2.15,2.15,0,0,1,1.92,2.71c-1.5,1.8-3.51,1.23-5.25.77a48.47,48.47,0,0,1-13.55-6.38c-13.59-8.6-18-21.75-19-36.38a28.4,28.4,0,0,1,2.25-12.86c.84-2,.35-4.57,2.4-6.16,3.49-6.68,8.12-12.39,14.82-16.34a7.86,7.86,0,0,0,2.95-2.71Z" transform="translate(-726 -325.84)"/><path class="cls-11" d="M824.4,329c-1.93-1.39-4.72-1.1-6.35-3.07H828.2c.34,1.92,2.22,2.27,3.5,3.23,5.87,4.33,11.16,9.15,14.27,15.82,2.49,1.48,2.43,4.17,3.12,6.44,5,16.28,1.33,31.05-10.08,43.49a38.14,38.14,0,0,1-24,12.38c-1.4.16-2.76.27-3.59-1.18-.2-2,1.25-2.32,2.77-2.61a42.41,42.41,0,0,0,16-7,34.6,34.6,0,0,0,12.53-15.37c2.21-5.1,4.6-10.11,4.28-15.82C846,349.33,839.92,336.41,824.4,329Z" transform="translate(-726 -325.84)"/><path class="cls-7" d="M1242,450.62c0,1.74-1,3.1-1.81,4.51-5,8.72-9.38,17.78-14.82,26.28-2.67,0-3.63-2.22-5-3.75-5.84-6.46-11.41-13.14-17.26-19.59-2.39-2.65-3-2.64-5.33,0-3.55,4.05-7.2,8-11,11.86-2.88,2.93-5,3-7.62,0-1.57-1.79-3.09-3.63-4.51-5.54-.74-1-1.49-2-1.15-3.37-1.29-1.74.26-3.16.57-4.72a73.27,73.27,0,0,1,3.76-6.91l.62-1.21c.49-.58.65-1.36,1.25-1.87h0c3.64-6.45,7.33-12.87,10.92-19.34,5.54-10,11-20,16.53-30,.63-1.14,1.08-2.65,2.76-2.61s2.09,1.54,2.72,2.69Z" transform="translate(-726 -325.84)"/><path class="cls-12" d="M811.71,405.77c4.6,1,8.73-.61,12.63-2.5,8.39-4.07,15.79-9.25,20-17.82a63,63,0,0,0,5.5-19.06c1.12-7.65-1.74-14.45-3.9-21.44,2.43,0,2.86,2.05,3.31,3.55,2.45,8.12,4.58,16.34,3,24.88-.73,3.89-2,7.67-3.11,11.5-1.32,2.2-2.39,4.61-4,6.56a51.89,51.89,0,0,1-24.49,16.14c-14.25,4.6-27.78,2.34-40.66-4.62-1.73-.93-3.17-2.34-4.83-3.42a33,33,0,0,1-12.29-13.43c-.47-4.38-2.63-8.34-3.27-12.72a51.29,51.29,0,0,1,1.71-21.76c.37-1.28.67-2.57,1-3.86s.79-2.58,2.46-2.82c-1,3.95-2.3,7.87-3.09,11.87-1.7,8.54.79,16.59,3.54,24.56,1.77,5.12,4.51,10.05,8.68,13.34,6.9,5.47,14,11.24,23.87,11a2.82,2.82,0,0,1,3-1.16,25.87,25.87,0,0,0,9,.3A2,2,0,0,1,811.71,405.77Z" transform="translate(-726 -325.84)"/><path class="cls-1" d="M1059.1,370.63c0,3.8-2.78,6.21-6.58,5.76a30.8,30.8,0,0,0-3.47-.1q-29.86,0-59.75,0c-4.87,0-8.06-3.35-7.52-7.77.17-1.37.56-2.61,2-3.21.72.79.3,1.63.1,2.45a2.88,2.88,0,0,0,.29,3.38c.53,1.73,1.92,2.42,3.58,2.81a63.83,63.83,0,0,0,8.52.19q25.1,0,50.19,0h2.7c1,0,1.91,0,2.86,0a3.22,3.22,0,0,0,2-.61,3.34,3.34,0,0,1,.73-.37,2.91,2.91,0,0,0,2.52-1.64C1057.76,371,1058.23,370.39,1059.1,370.63Z" transform="translate(-726 -325.84)"/><path class="cls-13" d="M980,343q-.79,2.46-1.6,4.92c-.2.59-.5,1.16-1.27,1.15s-1-.61-1.19-1.21c-.6-2.58-1.18-5.17-1.72-7.77-.12-.56-.28-1.33.55-1.52s1.07.48,1.22,1.08c.35,1.37.66,2.75,1.1,4.61,1.36-1.45,1.38-3,2-4.32.3-.64.38-1.49,1.34-1.45s1.08.88,1.31,1.53c.48,1.34.9,2.7,1.63,4.89l1.53-5.45c.18-.62.46-1.23,1.28-1,.62.19.56.78.45,1.28q-.84,3.9-1.71,7.78c-.16.7-.36,1.46-1.3,1.51s-1.16-.73-1.38-1.4c-.49-1.53-1-3.08-1.42-4.62Z" transform="translate(-726 -325.84)"/><path class="cls-14" d="M1042,349.23c-2,.24-2.27-1.43-3-2.61-.52-.93-1.07-1.81-2.37-1.57s-1,1.32-1.14,2.18.19,1.87-1.1,1.75c-1-.09-.75-1.08-.78-1.74a20.84,20.84,0,0,1,0-3.95c.26-1.66-1.18-4.15,1.18-4.8,2.58-.71,5.51-.68,7.23,2.16.16.26.42.53.41.79C1042.31,344,1042.2,346.64,1042,349.23Z" transform="translate(-726 -325.84)"/><path class="cls-15" d="M987.46,364c3.58-.06,7.15-.18,10.72-.18q25.91,0,51.81,0c1.16,0,2.31.1,3.47.16a.62.62,0,0,1,.21.49c0,.18,0,.28-.07.28-.65.93-1.89.65-2.72,1.22a6.12,6.12,0,0,1-1.2.6,4.23,4.23,0,0,1-.94.1,3.72,3.72,0,0,1-1.43-.28,4.76,4.76,0,0,0-2-.67c-6.21.5-12.44.2-18.65.23q-17.09.07-34.16,0c-1.65,0-3.41.31-4.86-.86A.87.87,0,0,1,987.46,364Z" transform="translate(-726 -325.84)"/><path class="cls-16" d="M1050.29,343.72c.69-1,1.5-2.35,2.72-2.26,2.69.19,3.38-1.6,4.26-3.33,1.68,3.63,2.52,7.3.63,11.12-2.8,0-5.91.8-7.61-2.45A2,2,0,0,1,1050.29,343.72Z" transform="translate(-726 -325.84)"/><path class="cls-17" d="M1008.51,338.21c.47.17,1.34.31,1.35.5.14,2.13,1.66,2.33,3.38,2.73,2,.46,3.17,5.81,1.8,7.27a1.17,1.17,0,0,1-.79.3c-.51,0-.67-.48-.71-.87-.08-1.12-.06-2.24-.17-3.35a1.56,1.56,0,0,0-1.84-1.63c-1.1.09-1.26.91-1.29,1.77s0,1.62,0,2.44c0,1.21-.42,2-1.82,1.88-1.42-1.62-1.46-3.5-1.11-5.47A32.22,32.22,0,0,1,1008.51,338.21Z" transform="translate(-726 -325.84)"/><path class="cls-18" d="M1023,347.42c-.28,2.9-2.52,2-4,1.64a3.68,3.68,0,0,1-2.84-4.7,3.82,3.82,0,0,1,2.84-3c2-.59,3.42.32,4.58,1.79,1.32.86,1.8,1.83.42,3a4.94,4.94,0,0,1-.86.33,5.18,5.18,0,0,1-1.17.24A1.67,1.67,0,0,1,1023,347.42Z" transform="translate(-726 -325.84)"/><path class="cls-19" d="M993.66,348.57c-3.57,1.31-6.06.64-6.78-1.95-.6-2.18-.1-4.16,2.24-5.09,2.81-1.12,4.27.61,5.38,2.79.27.33.55.84.29,1.11C993.9,346.34,993.88,347.48,993.66,348.57Z" transform="translate(-726 -325.84)"/><path class="cls-20" d="M1044,341.29c2.38-.26,4.65-.27,5.62,2.47a3,3,0,0,1,0,3c-.28,4.3-3.67,1.94-5.69,2.49a1.14,1.14,0,0,0-.54-.29,1.93,1.93,0,0,1-1.38-2.58C1043.58,344.92,1041.74,342.35,1044,341.29Z" transform="translate(-726 -325.84)"/><path class="cls-19" d="M1066,349.16c-2.1,0-4.25.58-6.26-.5-1.48-.84-1.76-2.45-.84-3.31,1.26-1.18.49-2.38.82-3.51a6.08,6.08,0,0,1,5.67.09C1067.55,344.32,1067.73,346.47,1066,349.16Z" transform="translate(-726 -325.84)"/><path class="cls-21" d="M995.87,344.43a1.68,1.68,0,0,0,.5-.07c.73-1.34-1.45-.92-1.25-1.94,2.14-1.94,4.23-1.69,6.29.13a13.78,13.78,0,0,1,0,6.51c-2.22.18-4.53.87-6.41-1C993.77,346.51,994.7,345.44,995.87,344.43Z" transform="translate(-726 -325.84)"/><path class="cls-22" d="M1001.42,349.06c0-2.17,0-4.34,0-6.52.53-.89,1.76-1.25,2-2.4.51-.95,1.32-1.63,2-.4a2,2,0,0,0,1.79,1.27c1.05.11,1.08,1,.68,1.59a5,5,0,0,0,.18,5.89c.16.24,0,.56-.36.72-5.32,1.07-3.71-3.48-4.77-6.24C1001.14,345.09,1002.69,347.39,1001.42,349.06Z" transform="translate(-726 -325.84)"/><path class="cls-23" d="M1007.67,349.21c.13-1.62-2.44-1.2-2.3-2.86.09-1.07-.41-2.23.59-3.13.52-.46,2.12-1.1,1.24-1.38-1.37-.45-1.65-3.33-3.83-1.7.24-1.16,1.24-1.79,1.94-.92,2.3,2.86,2.25-.4,3.2-1a84.74,84.74,0,0,0-.12,11Z" transform="translate(-726 -325.84)"/><path class="cls-24" d="M1059.71,341.84c.13,1.07.83,1.26,1.81,1.15s1.9-.48,2.39,1c-2.3.77-6.15.44-4.18,4.67l-1.83.59c-.16-3.71.91-7.49-.63-11.12,1.39-.46,1.19.57,1.26,1.29C1058.63,340.37,1058.37,341.46,1059.71,341.84Z" transform="translate(-726 -325.84)"/><path class="cls-25" d="M1044,341.29c-1,1-1.37,1.74.61,1.73,1,0,2.11-.63,2.61.8-5.15,1.58-5.63,2.39-3.27,5.43l-1.94,0c-2-2.88-.86-5.73.09-8.58Z" transform="translate(-726 -325.84)"/><path class="cls-26" d="M1067.41,341.27l2.51,0c.63,0,1.35-.07,1.61.63s-.4,1-1,1.22c-1.8.63-1.18,2.15-1.32,3.38s.41,2.85-1.82,2.8A11.31,11.31,0,0,1,1067.41,341.27Z" transform="translate(-726 -325.84)"/><path class="cls-27" d="M1028.07,341.25c.58.25,1.34,1,.88,1.21-2.85,1-2,3.32-2.18,5.28-.07.77-.29,1.38-1.22,1.42-1.21-2-.69-4.11-.62-6.18S1027.1,342,1028.07,341.25Z" transform="translate(-726 -325.84)"/><path class="cls-28" d="M995.87,344.43a6,6,0,0,0-.86,3.63l-1.35.51c-.18-1.11-.92-1.23-1.86-1s-2.07.38-2.69-.89c1.41-1.65,4.76.79,5.39-2.37Z" transform="translate(-726 -325.84)"/><path class="cls-29" d="M1067.41,341.27q0,4,0,8l-1.41-.09c.08-2.43.42-4.88-.61-7.23C1066.27,342.32,1066.82,341.76,1067.41,341.27Z" transform="translate(-726 -325.84)"/><path class="cls-30" d="M1023,347.42c-1.45-.21-3.12,1.1-4.51-.8,1.64-1,3.42-.29,5-.54.66-.16.85.14.73.72Z" transform="translate(-726 -325.84)"/><path class="cls-31" d="M1028.07,341.25c-2.41.58-2.78,2.26-2.56,4.33.12,1.19,0,2.39,0,3.58a1.85,1.85,0,0,1-.57.06c-.58-2.64-.94-5.28,0-7.93Z" transform="translate(-726 -325.84)"/><path class="cls-32" d="M1059.1,370.63l-1.18,1.37a.69.69,0,0,1-.84.05c-1-1.72-.68-3.49-.19-5.27l.36-.3C1059.32,367.25,1058.94,369.05,1059.1,370.63Z" transform="translate(-726 -325.84)"/><path class="cls-33" d="M1025,341.29q0,4,0,7.93c-.86-.63-.69-1.56-.73-2.42l-.73-.72c.88-1,.25-1.93,0-2.9Z" transform="translate(-726 -325.84)"/><path class="cls-34" d="M995.12,342.42a2.84,2.84,0,0,0,2.62.42c.73-.16,1.66-.07,1.75.75.13,1.15-1,.66-1.58.76a7.92,7.92,0,0,1-1.54,0C995.88,343.76,995.09,343.33,995.12,342.42Z" transform="translate(-726 -325.84)"/><path class="cls-35" d="M1053.45,364.61c0-.21,0-.41,0-.62,1.84,0,3.28.58,3.79,2.49l0-.05c-1.69,1.23-2.84.25-3.94-.91A.76.76,0,0,1,1053.45,364.61Z" transform="translate(-726 -325.84)"/><path class="cls-36" d="M982.86,367.62c.32-.78.64-1.55.95-2.33l.77-.09a2.26,2.26,0,0,1,1.47-.18c.66,2-.65,2.66-2.3,3.06A1.34,1.34,0,0,1,982.86,367.62Z" transform="translate(-726 -325.84)"/><path class="cls-37" d="M986.18,365.22l-1.6,0a3.2,3.2,0,0,1,2.88-1.2,2.18,2.18,0,0,1,0,.51C987.27,365.15,986.92,365.52,986.18,365.22Z" transform="translate(-726 -325.84)"/><path class="cls-38" d="M1049.62,346.76c0-1,0-2,0-3l.69,0v3.08Z" transform="translate(-726 -325.84)"/><path class="cls-39" d="M1222.2,667.36c-7.61-.14-15.21-.41-22.81-.41q-177,0-354,0c-18.28,0-36.53,1-54.78,1.9-10.11.52-20.19,1.46-30.29,2.21A238.45,238.45,0,0,1,785,637c4.75-5.61,9.9-10.87,15-16.13s11.17-10.23,16.93-15.17A244.62,244.62,0,0,1,842.39,587a278.89,278.89,0,0,1,38.67-20.86,255.43,255.43,0,0,1,26.23-9.9c1-.34,2-.78,2.23-1.94,2.67-1.2,5.57-1.82,8.28-2.94,4.62-.46,8.93-2.24,13.47-3,3.31-.59,6.54-1.53,9.88-2a4.65,4.65,0,0,0,3.5-1.81c1.34-.41,1-2.94,3.14-2.36a3.77,3.77,0,0,0,4.48,2.34c7.24-1.31,14.59-1.7,21.9-2.41,1.16-.11,2.24-.55,3.4-.63,3.76,1.15,7.5-.39,11.25-.06,1.25.11,2.52-.07,3.77.11,2.35.08,4.69-.29,7,0,1.28.7,2.68.32,4,.37,2,.45,4.12-.17,6.15.34a16.18,16.18,0,0,0,5.72.27,34.16,34.16,0,0,1,5.44.48c7.43,1,14.92,1.54,22.18,3.5a8.65,8.65,0,0,1,2.53.31c2.87,2,4.51,5.17,7.18,7.39a24.28,24.28,0,0,1,.86,3c.55-1,.44-2,1-2.89a20.3,20.3,0,0,1,6-4c1.82.49,3.86.36,5.39,1.72,2.63,2.49,6.3,2.54,9.5,3.53a277.58,277.58,0,0,1,48,20.45,240.63,240.63,0,0,1,26.7,16.41q11.73,8.31,22.57,17.71,7.2,6.26,13.9,13a254.66,254.66,0,0,1,26.67,31.41C1216.51,658.76,1219.31,663.09,1222.2,667.36Z" transform="translate(-726 -325.84)"/><path class="cls-40" d="M1173.49,461c2.35,2.88,4.74,5.74,7,8.67,1.63,2.07,3.09,2.07,4.85.12q6.23-6.93,12.6-13.74c2.24-2.4,3.13-2.32,5.29.14l22.11,25.2c-2.54,4.81-5,9.65-7.64,14.43-3,5.51-6.1,11-9.13,16.48a5.48,5.48,0,0,0-.31,1.49c-12.33,0-24.64.25-36.87,1.94q-7.67,1.05-15.28,2.35c-2.05.34-3.36.07-3.13-2.32-.43-.29-.92-.66-.94-1.15-.16-4.28-2.19-7.86-4.41-11.38,0-1.09,1.24-1.39,1.62-2.24,5-7.45,8.76-15.59,13.27-23.32,2.9-5,5.63-10.05,8.43-15.08C1171.51,461.63,1171.89,460.42,1173.49,461Z" transform="translate(-726 -325.84)"/><path class="cls-41" d="M1149.27,501a2.26,2.26,0,0,1-1.31,1.87c-.6.75-1.44.69-2.29.72-4.52.15-7.17,2.18-8.39,6.35a12.23,12.23,0,0,0,0,7.52c.41,1.24,1,2.51.18,3.82s-2.26,1.39-3.55,1.74a270.76,270.76,0,0,0-66.44,28.15c-.45.26-.85.59-1.28.89a4.5,4.5,0,0,1-5.2-1.3c-.82-1.33,0-2.58.23-3.85.8-3.7.88-7.29-1.3-10.66s-4.41-4.17-8.27-3.12a6,6,0,0,1-2.81.31,3.8,3.8,0,0,1-2.32-2.68,24.73,24.73,0,0,1-1-3.53c-.74-3.65-1.49-7.23-6.32-7.71a4.85,4.85,0,0,1-1.2-1.47c-1.06-2.32-2.5-4.49-3.29-6.94-1.07-1.58-2.51-3.1-1.06-5.16a11.1,11.1,0,0,0,4.36.58h94.93c1.58,0,3.16.19,4.23-1.4,2-2.93,4.86-4,8.44-3.54A6.21,6.21,0,0,0,1149.27,501Z" transform="translate(-726 -325.84)"/><path class="cls-42" d="M1137.42,521.29a14.11,14.11,0,0,1-1.07-12.87c2-5.43,6-7.29,11.61-5.54,4.36,3.32,5.58,7.78,5,12.9-1,1.8-.6,4-1.94,5.71a10.93,10.93,0,0,1-5.67,4.12,2.08,2.08,0,0,1-3.06,0C1140.52,524.35,1138.45,523.37,1137.42,521.29Z" transform="translate(-726 -325.84)"/><path class="cls-42" d="M1225.37,514.49a14.25,14.25,0,0,1,2.24-8.46c3.61-5.32,9.86-5.3,13.42,0a12.64,12.64,0,0,1,2.06,8.47c-.95,1.28-.25,2.81-.69,4.15a10,10,0,0,1-6.93,6.92,2.07,2.07,0,0,1-3.06,0C1227.67,523.32,1225.65,519.42,1225.37,514.49Z" transform="translate(-726 -325.84)"/><path class="cls-43" d="M1232.41,525.6h3.06c0,1.31,0,2.61,0,3.92a1.52,1.52,0,0,1-3,0C1232.39,528.2,1232.41,526.9,1232.41,525.6Z" transform="translate(-726 -325.84)"/><path class="cls-43" d="M1142.33,525.6h3.06c0,1.3,0,2.61,0,3.91a1.52,1.52,0,0,1-3,0C1142.31,528.21,1142.33,526.9,1142.33,525.6Z" transform="translate(-726 -325.84)"/><path class="cls-44" d="M917.62,551.93a8.23,8.23,0,0,1-8.1,2.4c-12.25-20.7-27.39-39-47.43-53.15-.59-.41-1.14-.89-1.71-1.34,2.38-.11,3.85,1.44,5.37,2.83a11.9,11.9,0,0,0,8.5,3.31q39-.17,77.91,0c2.46,0,4.27-.41,6-2.48,2.78-3.42,6.6-2.55,9.68,1.83a1.41,1.41,0,0,1-.75.42,1.24,1.24,0,0,1-.61-.05c-5.35-2.42-5.35-2.42-9,2.2-.25.32-.49.65-.76,1a4.53,4.53,0,0,0-1.33,2.82,7.43,7.43,0,0,1-.73,2,6.75,6.75,0,0,0-1.11,3.53,8.84,8.84,0,0,1-.77,2.55,5.36,5.36,0,0,0-1.08,4.17,13.8,13.8,0,0,1-.79,3.16c-1.77,2.24-1,5.1-1.93,7.55a2.73,2.73,0,0,1-.41.86c-.82.82-.7,1.88-.82,2.88s-.59,1.81-1.78,1.75-2-.84-1.8-1.78c.58-3.25-1.74-5.75-2.17-8.72a6,6,0,0,0-1.8-3.17,5.58,5.58,0,0,1-.88-2.14,7.15,7.15,0,0,0-2.14-5.19,10.36,10.36,0,0,1-1.37-2,3.47,3.47,0,0,0-1.38-1.65c-.24-.12-.46-.27-.68-.4a2.28,2.28,0,0,0-3.22.86c-3.8,4.6-5.46,10.12-7,15.63s-2.78,11.12-3.93,16.73C919.26,549.61,919.15,551.14,917.62,551.93Z" transform="translate(-726 -325.84)"/><path class="cls-41" d="M967.11,505.32l.68,0c.85,1.43,2.3,1.23,3.65,1.23,5.59,0,11.18-.19,16.75.07,3.63.18,6.53-.05,7-4.34,1.61,1.16,1.07,2.83,1.09,4.36-.07,8.55-.64,17.09-1.42,25.6-.22,2.35-.23,4.68-.32,7-.06,1.54-.46,2.81-2,3.54-3.75.17-7.51.36-11.27.52-1.44.06-3,.31-3.93-1.19-1.44-.69-1.61-2.12-1.86-3.37-2.1-10.39-4.1-20.8-8.57-30.57C966.49,507.23,966.22,506.22,967.11,505.32Z" transform="translate(-726 -325.84)"/><path class="cls-42" d="M842.22,502.2a13.68,13.68,0,0,1-6.75-9.1,15.51,15.51,0,0,1,.23-5.73c0-.1,0-.2,0-.3,1.26-5.12,4.42-8.21,8.37-8.18,4.14,0,7.72,3.6,8.68,8.68a22.64,22.64,0,0,1-.36,7.87,13.86,13.86,0,0,1-7.15,6.79A2,2,0,0,1,842.22,502.2Z" transform="translate(-726 -325.84)"/><path class="cls-45" d="M995.16,506.47l0-4.21a8.74,8.74,0,0,1,5.76-5.66,7.59,7.59,0,0,0,4.1-3.25c2-3.21,5-3,8.09-2.71,1.9.15,2.68,1.49,2.89,3.14a6.65,6.65,0,0,0,4.34,5.85c-.56,1.16-1.84,1-2.8,1.44-5.67.13-8.05,2.44-8.45,8.24-.27,3.76-1.66,5.31-4.68,5.21-1.58-.06-3.18-.58-3.65-2C999.82,509.62,997.77,507.86,995.16,506.47Z" transform="translate(-726 -325.84)"/><path class="cls-46" d="M1017.34,499.87l3-.24c2.75.76,4.86,2.22,5.82,4.95-.11.29-.26.68-.53.72-4,.62-4.78,3.83-5.77,6.79-.87,2.61-2.11,5.08-3,7.67s-2.71,4-5.21,4.83a4.56,4.56,0,0,0-3.41,3.86c-.74,3.56-1.73,7.08-2.44,10.65-.3,1.48-.62,3-2.38,3.66-1.08.91-2.17.52-3.26,0a3.55,3.55,0,0,1-.48-3.52c1.53-4.25,1.75-8.77,3-13.07,1-3.28,2.66-5.73,6.14-6.78a4.65,4.65,0,0,0,3-2.89c1.92-4.42,3.24-9.07,5.39-13.4C1017.86,502,1016.72,500.94,1017.34,499.87Z" transform="translate(-726 -325.84)"/><path class="cls-47" d="M1015.86,519.48c1.55-4.29,3.07-8.58,4.66-12.85,1-2.78,3.67-1.63,5.67-2.05,2.47.5,5.29-.76,7.43,1.38.31,1.8,1.39,3.29,2.13,4.91-.08,1.49-1.31,1.41-2.34,1.6-3.78.81-6.32,3.51-8.91,5.9C1021.74,520.91,1018.89,521.55,1015.86,519.48Z" transform="translate(-726 -325.84)"/><path class="cls-1" d="M1177.82,449.39a19.35,19.35,0,0,1-3.76,6.91A12.81,12.81,0,0,1,1177.82,449.39Z" transform="translate(-726 -325.84)"/><path class="cls-1" d="M1179.69,446.31a2.15,2.15,0,0,1-1.25,1.87C1178.44,447.3,1178.62,446.53,1179.69,446.31Z" transform="translate(-726 -325.84)"/><path class="cls-42" d="M776.23,537.21c-6.84-4.92-8.9-11.23-5.78-17.75,1.71-3.58,4.8-5.78,8-5.51,4,.33,6.2,2.88,7.52,6.19,2.75,7,.17,13.47-6.64,17.08A2.08,2.08,0,0,1,776.23,537.21Z" transform="translate(-726 -325.84)"/><path class="cls-48" d="M776.23,537.21h3.1c0,1.32,0,2.65,0,4a1.55,1.55,0,0,1-3.1,0C776.2,539.86,776.22,538.54,776.23,537.21Z" transform="translate(-726 -325.84)"/><path class="cls-43" d="M842.22,502.2l3.06,0c0,1.32,0,2.63,0,3.94a1.53,1.53,0,1,1-3,0C842.19,504.83,842.21,503.51,842.22,502.2Z" transform="translate(-726 -325.84)"/><path class="cls-49" d="M811.71,405.77c-4.66,1.27-9.31.27-14,0-2-2.39-5.23-2.49-7.89-3.53-9.49-3.72-17.27-9-21.58-18.46-4.47-9.8-5.57-19.86-2.79-30.15,2.94-10.84,9.41-19.23,19.93-24.38A5.84,5.84,0,0,1,787,329c-1.74,2.12-4.41,3.06-6.57,4.61-9.52,6.83-13.22,16.43-15.08,27.17-1,5.54-.47,10.7,2.62,15.53,1.37.11,1.51,1.27,1.89,2.17a36.59,36.59,0,0,0,11,14.9c4.91,3.9,10.17,7.14,16.64,8a23.81,23.81,0,0,0,16.35.08c10.13-2.24,18.39-7,23.85-15.91a45.35,45.35,0,0,0,3.94-7.24c.33-.85.68-1.75,1.78-2,4.68-7.07,3.14-14.47,1.24-21.88a36.58,36.58,0,0,0-19.19-24.34A5.32,5.32,0,0,1,824.4,329a31.13,31.13,0,0,1,18.07,16.16c3.63,7.28,5.68,15,4.73,23.16-1.39,11.94-6,22.14-16.78,29.16a44.74,44.74,0,0,1-16.66,7.06A2.68,2.68,0,0,0,811.71,405.77Z" transform="translate(-726 -325.84)"/><path class="cls-50" d="M776.17,341.26c4-4,8.15-7.63,13.54-9.78,12.64-5,24.82-4.55,36.56,2.57,3.33,2,6.57,4.08,8.91,7.21a41.2,41.2,0,0,1,8.25,16.59v1.23c.81,4.52,1.46,9-.49,13.44-1.77.49-1.62-.86-1.67-1.78-.12-1.93-.09-3.87,0-5.81.2-7.15-2-13.42-6.25-19.37a36.46,36.46,0,0,0-9.82-9.29c-1.82-1.21-3.65-2.43-6-2.44-2.4-.33-4.65-1.18-7-1.62-14.65-2.69-26,2.5-35,13.49a34.56,34.56,0,0,0-5.08,9.77,10.49,10.49,0,0,0-1.49,3.89c-.31,1.05-.06,2.82-2.11,2.75-1.2-2-.51-4.2,0-6.09A40.66,40.66,0,0,1,776.17,341.26Z" transform="translate(-726 -325.84)"/><path class="cls-51" d="M776.17,341.26c-.88,3.22-3.58,5.44-4.83,8.53-1.62,4-3.18,8-2.78,12.36,0,.14.09.28.13.41a17,17,0,0,1,.78,2.51c-.5,9.36,2.89,17.48,9.29,24.19a35,35,0,0,0,20.3,10.64,7.43,7.43,0,0,1,3.27.94c.65.45,1,1.07.09,1.68a15.83,15.83,0,0,1-5.31-.43c-4.4-.09-8.06-2.17-11.62-4.3a39.79,39.79,0,0,1-17.56-21.51c.29-4.36-2.08-8.46-1.28-12.88C768.1,355.32,769.81,347.36,776.17,341.26Z" transform="translate(-726 -325.84)"/><path class="cls-51" d="M842.16,372.6c1.5-1.33,1.26-3.09,1.27-4.79,0-2.91,0-5.82,0-8.73,2.37,3.91,1.34,8.06.72,12.11a23.58,23.58,0,0,0-.72,5.09c-2.42,7.32-6.46,13.8-12.65,18.48-4.78,3.61-10,7.14-16.54,7.33,0-.13-.08-.27-.13-.4,1.64-2.25,4.84-2.05,6.66-4a19.72,19.72,0,0,1,2.37-1.66,2.52,2.52,0,0,1,.75-.33,4.53,4.53,0,0,0,2.4-1.45,3.31,3.31,0,0,1,.72-.44,28.65,28.65,0,0,0,11.3-13.06C840.35,378.36,840.09,375,842.16,372.6Z" transform="translate(-726 -325.84)"/><path class="cls-51" d="M843.43,357.85a97.88,97.88,0,0,0-8.25-16.59C839.82,345.91,842.83,351.32,843.43,357.85Z" transform="translate(-726 -325.84)"/><path class="cls-52" d="M1053.56,365.13c1.38.06,2.28,1.43,3.73,1.3.34,1.86,1,3.71-.08,5.54-.17,1.44-1.49,1.46-2.48,1.9l-.1.17.11.16c-.81.75-1.92,0-2.76.52-1,0-2-.39-3-.3a4.59,4.59,0,0,1-1.73-.57,4.09,4.09,0,0,1-1.71-1.66c-1.8-3.7-1-5.82,2.22-6.36l1.2.05c.7.78.33,2,1.24,2.7.7.11,1.15,1.31,2,.38a2.83,2.83,0,0,1-.11-.69c.26-.93-.18-1.92.32-2.81C1052.73,365.13,1053.06,364.84,1053.56,365.13Z" transform="translate(-726 -325.84)"/><path class="cls-53" d="M1047.11,375l-58.6.11a2.67,2.67,0,0,1-2.33-.67.75.75,0,0,1,.25-1,3.08,3.08,0,0,1,1.72-.52c18,1.32,36,.25,54,.61,1.56,0,3.17-.29,4.67.46A.77.77,0,0,1,1047.11,375Z" transform="translate(-726 -325.84)"/><path class="cls-54" d="M982.86,367.62l1,.11a2.28,2.28,0,0,1,.28,3.29l-.43.31C981.36,370.51,982.33,369,982.86,367.62Z" transform="translate(-726 -325.84)"/><path class="cls-55" d="M1054.73,373.87a5.16,5.16,0,0,1,2.48-1.9l.71,0C1057.36,373.43,1056.69,374.68,1054.73,373.87Z" transform="translate(-726 -325.84)"/><path class="cls-56" d="M986.22,374a.69.69,0,0,1,0,.47c-1.74-.36-3.19-.94-2.5-3.12l-.06.05C985.68,371.13,986.15,372.37,986.22,374Z" transform="translate(-726 -325.84)"/><path class="cls-57" d="M1049,373.86l3,.49c.72-.32.83,0,.75.64l-3.16,0C1049.26,374.72,1048.67,374.53,1049,373.86Z" transform="translate(-726 -325.84)"/><path class="cls-58" d="M1049,373.86l.62,1.16h-2.52l-.07-.69a.51.51,0,0,1,0-.62.73.73,0,0,1,.65-.13C1048.24,373.09,1048.57,373.7,1049,373.86Z" transform="translate(-726 -325.84)"/><path class="cls-59" d="M1052.79,375l-.75-.64a2.82,2.82,0,0,1,2.7-.15A1.68,1.68,0,0,1,1052.79,375Z" transform="translate(-726 -325.84)"/><path class="cls-60" d="M1038,343.15c-1.34,0-2.38-.07-2.42-1.51,0-1.2.69-1.58,1.79-1.57s2.5,0,2.6,1.51S1038.84,343,1038,343.15Z" transform="translate(-726 -325.84)"/><path class="cls-61" d="M986.22,374l-2.6-2.6.21-3.65c.78-.84,1.56-1.68,2.35-2.51l1.29-.71,47.75.14c3.9,0,7.8.05,11.7.08.11.19.21.45.1.56-2.59,2.44-2.37,5.14-.84,8a1.15,1.15,0,0,1-.71.79c-18.9.16-37.8,0-56.69.07a2.74,2.74,0,0,1-1.23-.25Z" transform="translate(-726 -325.84)"/><path class="cls-62" d="M1052.83,368.41a2.16,2.16,0,0,1,0,.36c-.73,1.26-1.94,1.08-3.12,1a2.55,2.55,0,0,1-.08-3.89l.73-.56a1.12,1.12,0,0,1,1.19.19A3.07,3.07,0,0,1,1052.83,368.41Z" transform="translate(-726 -325.84)"/><path class="cls-63" d="M1045.78,372.68c-2.28-2.81-2-4.66,1.14-7.95.7.06.64.67.82,1.1-2.24,1.69-2.88,3.72-1.38,6.19C1046.26,372.32,1046.19,372.64,1045.78,372.68Z" transform="translate(-726 -325.84)"/><path class="cls-64" d="M1049.63,365.83a5.21,5.21,0,0,0,0,3.69c-.19.26-.37.26-.55,0-1.58-1.15-1.09-2.38-.16-3.63Z" transform="translate(-726 -325.84)"/><path class="cls-65" d="M1050.88,365.78l-.52-.51c.79-1.28,2.06-.43,3.09-.66,0,.17.07.35.11.52l-.74.7A2,2,0,0,1,1050.88,365.78Z" transform="translate(-726 -325.84)"/><path class="cls-11" d="M1056.43,345.47c0,1.34-.68,2.19-2.08,2.12a2.1,2.1,0,0,1-2.16-2.46c.08-1.5,1-2.16,2.51-2.05S1056.45,344.27,1056.43,345.47Z" transform="translate(-726 -325.84)"/><path class="cls-34" d="M1018.37,344c1-1.17,1.87-1.13,3.06-.41C1020.52,344.73,1019.59,344.39,1018.37,344Z" transform="translate(-726 -325.84)"/><path class="cls-28" d="M992.25,343.8a3.41,3.41,0,0,1-3.24.3C990.16,342.59,991,343,992.25,343.8Z" transform="translate(-726 -325.84)"/><path class="cls-66" d="M1047.45,346.87a1.52,1.52,0,0,1-1.71,1.05c-.79,0-1.59-.35-1.34-1.28.2-.76,1-1,1.81-.9S1047.43,346.09,1047.45,346.87Z" transform="translate(-726 -325.84)"/><path class="cls-67" d="M1062.4,347.88c-.61-.11-1.21-.35-1.15-1.13s.67-1,1.34-1,1.55.33,1.37,1.26C1063.84,347.65,1063.17,347.91,1062.4,347.88Z" transform="translate(-726 -325.84)"/><path class="cls-68" d="M998.3,345.67c.75.1,1.54.25,1.49,1.17s-.82,1.09-1.58,1.08-1.52-.25-1.48-1.15S997.54,345.73,998.3,345.67Z" transform="translate(-726 -325.84)"/><path class="cls-69" d="M967.11,505.32c5.77,11.65,8.24,24.16,10.24,36.79-1.71,2.25-4.43,1.75-6.6,1.78-6.68.07-13.21,1.27-19.75,2.19-3.3.46-4.29,0-3.55-3.13a3.12,3.12,0,0,0-.05-.91c-1-2.53-.09-4.87.79-7.21h0c.87-2.62.63-5.48,1.85-8,.26-1-.21-2.21.65-3.12.6-1.37.19-3,1.23-4.24.26-.84-.07-1.83.68-2.54.56-1.15.16-2.6,1.2-3.6l.7-1.93c.51-1,.34-2.2,1.27-3,.86-1.25,1.68-2.54,2.6-3.75,2.47-3.25,4.9-3.36,7.67-.38C966.36,504.62,966.74,505,967.11,505.32Z" transform="translate(-726 -325.84)"/><path class="cls-69" d="M936.65,516.52l1.06,1.73c1.56,1.61,1.93,3.74,2.73,5.68l.43,1.69c2.09,2.54,1.9,5.88,3.2,8.75,1,2.11.66,4.71,2,6.93a3.8,3.8,0,0,1-.4,3.82c0,1.64-1.16,2-2.47,2.22a212.68,212.68,0,0,0-23.6,5.37c-.92.26-1.67.35-2-.78,1.81-10.9,4-21.7,8.56-31.89a22.5,22.5,0,0,1,3.57-5.4c1.65-1.52,3.34-1.37,5-.08l0,0A3.56,3.56,0,0,1,936.65,516.52Z" transform="translate(-726 -325.84)"/><path class="cls-70" d="M1015.86,519.48c1.48,0,2.95.06,4.42,0,.62,0,1.7-.09,1.77-.34,1-3.5,5.35-3.54,6.89-6.41,1-1.79,2.64-1.29,4.19-1.22,2.36,1.71,3.36,3.91,2.65,6.75a1.25,1.25,0,0,0,.43.56c5.36.07,8,2.65,8.78,7.83.58,3.77,1.67,7.49,2.25,11.3-.15,2.62-1,5.2-.47,7.88a1.88,1.88,0,0,1-.86,1.86l-2.66-.1c-1.45-1.12-1.28-2.72-1.27-4.24,0-6.08-3.47-10.84-6.52-15.67-1.57-2.47-5.93-1.9-7.94.57-1.28,1.58-1.81,3.76-4,4.64-1.91.47-3.88.67-5.83,1-2.46.39-4.3,1.47-5.13,3.86-1,1.86-.45,4.48-2.9,5.65-2.1-.13-4.26.33-6.26-.65,1.2-5,2.54-10,3.53-15.12.45-2.31,1.42-3.75,3.81-4.16A6.36,6.36,0,0,0,1015.86,519.48Z" transform="translate(-726 -325.84)"/><path class="cls-71" d="M1017.34,499.87c2,1.19,2.39,2.13,1,4.54-2.3,3.95-3.62,8.44-5.17,12.77a4.64,4.64,0,0,1-3.56,3.43c-3.49.79-5.14,3-5.78,6.41-1,5.3-2.42,10.52-3.65,15.78l-7.62,0c1.34-4.28.59-8.72,1.1-13.08.92-7.7,1.05-15.48,1.51-23.23,3.65-.51,5.78.87,6.26,4.54.3,2.31,2.09,2.43,4,2.33,2.31-.13,2.46-1.72,2.24-3.26-.54-3.71,1.56-6.48,3.5-9.19C1012.68,498.78,1015.24,500,1017.34,499.87Z" transform="translate(-726 -325.84)"/><path class="cls-46" d="M1023.28,532.33c.76-1.22,1.61-2.39,2.25-3.66,1.4-2.78,3.53-4,6.81-3.88,3.08.09,4.37,1.84,5.66,4.08,3.39,5.84,6.28,11.77,5.25,18.75l-22.2-3.58a3.51,3.51,0,0,1-1.1-3.6C1019.72,537.22,1019.43,534,1023.28,532.33Z" transform="translate(-726 -325.84)"/><path class="cls-42" d="M1045.91,547.72a19.21,19.21,0,0,1,0-9.73c.63-1.91.15-4.45,3.06-5.06,7.14-3.38,12.92-.41,13.94,7.26.48,3.69.26,7.33-2,10.58a9.23,9.23,0,0,1-5.59,3.81,2.19,2.19,0,0,1-3.1-.08C1049.05,553.2,1047.23,550.68,1045.91,547.72Z" transform="translate(-726 -325.84)"/><path class="cls-42" d="M932.31,577.81c-8.45-3.86-8.27-14.1-4.7-19.31,3.39-4.93,9.76-4.94,13.13,0,4.69,6.9,2.14,17.45-5.39,19.33A2,2,0,0,1,932.31,577.81Z" transform="translate(-726 -325.84)"/><path class="cls-72" d="M1020.91,540.35c.05,1.23.09,2.46.14,3.69l-5.7-.1c-4.51-.58-4.59-.71-3-5C1016,536.78,1018,537.12,1020.91,540.35Z" transform="translate(-726 -325.84)"/><path class="cls-73" d="M945.64,545.12c-.82-6.67-2.94-13-4.77-19.5a2.61,2.61,0,0,1,1.63,2.13c.23,3.35,3.18,6,2.5,9.58-.14.73,0,1.95,1.07,1.84s.79-1.28.6-2c-.36-1.38,0-2.2,1.52-2.35-.26,2.4-.53,4.8-.79,7.21C946.56,542.93,947.14,544.58,945.64,545.12Z" transform="translate(-726 -325.84)"/><path class="cls-74" d="M932.31,577.81l3,0c0,1.41,0,2.84,0,4.25-.05,1-.55,1.77-1.75,1.71s-1.28-.88-1.29-1.73C932.26,580.65,932.3,579.23,932.31,577.81Z" transform="translate(-726 -325.84)"/><path class="cls-74" d="M1052.26,554.5l3.1.08c0,1.3,0,2.6-.08,3.9a1.36,1.36,0,0,1-1.55,1.47,1.38,1.38,0,0,1-1.48-1.56C1052.23,557.1,1052.26,555.8,1052.26,554.5Z" transform="translate(-726 -325.84)"/><path class="cls-75" d="M1013,539c-.86,2.38-1.3,4.57,2.35,4.94-1.94.35-3.77-.34-5.66-.53.64-2.06,1.27-4.12,1.91-6.17a1.14,1.14,0,0,1,1.79.3C1013.83,538.14,1013.57,538.62,1013,539Z" transform="translate(-726 -325.84)"/><path class="cls-76" d="M1049,532.93l-3.06,5.06c-.54-5.51-2.48-10.72-3.78-16.06-.4-1.64-1.66-1.84-3.14-1.9-1.75-.08-3.6.49-5.24-.57,1.76-1.65,3.82-.8,5.8-.67,5.29.15,6.49,3.68,7.26,7.87C1047.21,528.8,1047.33,531.15,1049,532.93Z" transform="translate(-726 -325.84)"/><path class="cls-77" d="M1033.76,518.19c1-.6,1.83-1.1,1-2.52a25.48,25.48,0,0,1-1.62-4.13c.88-.19,1.87,0,2.62-.67,1.06,2.23,2.44,4.33,3.09,6.74C1037.27,518.81,1035.61,519.28,1033.76,518.19Z" transform="translate(-726 -325.84)"/><path class="cls-78" d="M1033.76,518.19l5.08-.58.7,1.18c-1.81,1.2-3.86.4-5.79.67A.73.73,0,0,1,1033.76,518.19Z" transform="translate(-726 -325.84)"/><path class="cls-73" d="M950,526.81a26.44,26.44,0,0,1-1.85,8C948.61,532.13,947.94,529.18,950,526.81Z" transform="translate(-726 -325.84)"/><path class="cls-73" d="M940.44,523.93l-2.73-5.68C939.85,519.59,940.2,521.74,940.44,523.93Z" transform="translate(-726 -325.84)"/><path class="cls-73" d="M934.79,514.56a5.72,5.72,0,0,0-5,.08C931.39,512.67,933.08,512.76,934.79,514.56Z" transform="translate(-726 -325.84)"/><path class="cls-73" d="M951.89,519.45a8.65,8.65,0,0,1-1.23,4.24C950.79,522.2,950.15,520.5,951.89,519.45Z" transform="translate(-726 -325.84)"/><path class="cls-73" d="M953.77,513.31a7.39,7.39,0,0,1-1.2,3.6C952.61,515.6,952.28,514.17,953.77,513.31Z" transform="translate(-726 -325.84)"/><path class="cls-73" d="M955.74,508.38a5.06,5.06,0,0,1-1.27,3C954.44,510.2,954.45,509,955.74,508.38Z" transform="translate(-726 -325.84)"/><path class="cls-73" d="M936.65,516.52l-1.89-2A1.84,1.84,0,0,1,936.65,516.52Z" transform="translate(-726 -325.84)"/><path class="cls-51" d="M797.11,402.09h5.71c1.58-1.74,3.93-.4,5.7-1.35,1.9.47,4.05,0,5.72,1.35h0A22,22,0,0,1,797.11,402.09Z" transform="translate(-726 -325.84)"/><path class="cls-79" d="M771.1,354.78c2.21-4.59,4.26-9.31,8-13,10-9.74,21.85-13.63,35.89-10.05,1.42.36,2.87.6,4.31.89,4.59,2.31,9,4.78,12.61,8.52a34.75,34.75,0,0,1,9.89,27.62c-.83,11.15-6.48,19.54-15.69,25.95-1.38,1-3,1.45-4.37,2.42A35.51,35.51,0,0,1,806.64,401a37.42,37.42,0,0,1-17-3.87c-13.42-6.38-20.82-18.86-20.39-33.18A23.77,23.77,0,0,1,771.1,354.78Z" transform="translate(-726 -325.84)"/><path class="cls-80" d="M771.1,354.78c-.4,5.25-1.82,10.41-.69,15.79a37,37,0,0,0,11.79,20.74c6.51,5.84,14.41,8,22.79,8.69a31,31,0,0,0,13.85-2.63,7.38,7.38,0,0,1,3-.81,1.49,1.49,0,0,1,1.9,0l-1.9,1.84a40.29,40.29,0,0,1-13.33,3.69h-5.71c-3.63-1.95-7.89-1.74-11.69-3.37-12.28-5.26-19.58-14.27-22.36-26.8-.52-2.34-.16-4.87-.21-7.31-.19-.82-.64-1.64,0-2.46h0C770.31,360,769,356.83,771.1,354.78Z" transform="translate(-726 -325.84)"/><path class="cls-81" d="M823.76,396.56h-1.9c6-3.69,11.36-8.06,14.85-14.2,5.2-9.15,6.21-18.62,2.43-28.56a33.69,33.69,0,0,0-17.8-19.26,4.49,4.49,0,0,1-2-1.88c6.22,1.49,10.85,5.33,14.77,9.9A33.18,33.18,0,0,1,842.37,362c.24,3.52-.12,7.08-.21,10.62a15.82,15.82,0,0,1-3.17,8.6c-2.94,5.4-6.65,10.17-12.06,13.51h0a10.6,10.6,0,0,1-3.17,1.85Z" transform="translate(-726 -325.84)"/><path class="cls-50" d="M768.56,362.15v2.46A1.6,1.6,0,0,1,768.56,362.15Z" transform="translate(-726 -325.84)"/><path class="cls-80" d="M826.93,394.71c4.84-3.82,8.58-8.56,12.06-13.51C836.58,387.05,832.91,391.85,826.93,394.71Z" transform="translate(-726 -325.84)"/><path class="cls-51" d="M808.53,402.09l13.33-3.69c-2.23,1.83-5.15,2.32-7.62,3.69Z" transform="translate(-726 -325.84)"/><path class="cls-80" d="M823.76,396.56a6.31,6.31,0,0,1,3.17-1.85A3.24,3.24,0,0,1,823.76,396.56Z" transform="translate(-726 -325.84)"/><path class="cls-82" d="M1049.1,369.51a.7.7,0,0,0,.55,0c1.22.38,2.06-.74,3.18-.75a3.5,3.5,0,0,1,2,1.8c.4.91-.78,1.58-1,1.19C1052.65,370,1050.41,370.71,1049.1,369.51Z" transform="translate(-726 -325.84)"/><path class="cls-83" d="M1050.88,365.78l1.94.05c.45.86,1.15,1.72,0,2.58C1052.06,367.62,1052.06,366.29,1050.88,365.78Z" transform="translate(-726 -325.84)"/><path class="cls-84" d="M1045.78,372.68l.58-.66c.47.49,1.21.77,1.3,1.55a.25.25,0,0,1-.2.25c-.82.52-1.18,0-1.46-.64A1.73,1.73,0,0,1,1045.78,372.68Z" transform="translate(-726 -325.84)"/><path class="cls-1" d="M1046,373.18l1.46.64-.42.5-57.4.06a2.72,2.72,0,0,1-2.09-.5q27.24-.06,54.48-.13C1043.36,373.75,1044.79,374.13,1046,373.18Z" transform="translate(-726 -325.84)"/><path class="cls-85" d="M1003.33,371.32c-.81.45-1.59.78-2-.47-.61-.91-.23-1.5.68-1.91.65-.28,1.28-1,2-.09A2.75,2.75,0,0,1,1003.33,371.32Z" transform="translate(-726 -325.84)"/><path class="cls-86" d="M1007.71,370.93c-1.05.61-2.1,1.44-3.24.14a.52.52,0,0,1-.36-.64c.37-.91,1.76-.95,1.9-2.06l1.72.52A1.54,1.54,0,0,1,1007.71,370.93Z" transform="translate(-726 -325.84)"/><path class="cls-87" d="M999.52,371.39c-.9.82-1.71,0-2.56-.14l0-.37c.41-1.23.86-2.42,2.58-2.25a1.6,1.6,0,0,1,.43.73A3,3,0,0,1,999.52,371.39Z" transform="translate(-726 -325.84)"/><path class="cls-88" d="M1002,368.94l-.68,1.91-1.27.48a3.33,3.33,0,0,1-.58-2.23c0-.15,0-.31.07-.47C1000.5,367.94,1001.27,368.42,1002,368.94Z" transform="translate(-726 -325.84)"/><path class="cls-89" d="M993,369.25c1.34.42,2.08-1.46,3.69-.76-.15.93-2.15.9-1.49,2.23a.56.56,0,0,1-.88.1,3.91,3.91,0,0,1-.49,0,1.12,1.12,0,0,1-1-.72A1.31,1.31,0,0,1,993,369.25Z" transform="translate(-726 -325.84)"/><path class="cls-90" d="M988.23,370.69l2.42.07a1.07,1.07,0,0,1,.69-.37,1.23,1.23,0,0,1,.71.35.78.78,0,0,1-.17.73c-1.47-.33-3,.91-4.43-.1a.5.5,0,0,1-.2-.49c0-.18.09-.27.14-.27A.78.78,0,0,1,988.23,370.69Z" transform="translate(-726 -325.84)"/><path class="cls-91" d="M999.51,369.1c1,.54.4,1.49.58,2.23l-.28.07h-.29C998.6,370.63,998.11,369.87,999.51,369.1Z" transform="translate(-726 -325.84)"/><path class="cls-92" d="M1004.74,370.06l-.27,1-1.14.25c0-.88-.11-1.79.69-2.47l1.25-.05C1005.64,369.44,1005.3,369.79,1004.74,370.06Z" transform="translate(-726 -325.84)"/><path class="cls-93" d="M991.9,370.84a1.29,1.29,0,0,0-.58-.1c-.82-.95-.05-1.38.64-1.84l1.06.35.33.88C993.25,371.1,992.69,371.19,991.9,370.84Z" transform="translate(-726 -325.84)"/><path class="cls-94" d="M1004.74,370.06l.53-1.26.74-.43c.11.71.87,1.47,0,2.12C1005.6,370.83,1005.13,370.35,1004.74,370.06Z" transform="translate(-726 -325.84)"/><path class="cls-95" d="M987.51,370.74l-.06.63a3,3,0,0,1,0-4A4.28,4.28,0,0,1,987.51,370.74Z" transform="translate(-726 -325.84)"/><path class="cls-96" d="M991.9,370.84a1.81,1.81,0,0,0,1.45-.71l.49.66c-.46.77-1,1.21-2,.68Z" transform="translate(-726 -325.84)"/><path class="cls-97" d="M1007.71,370.93c0-.68,0-1.36,0-2,.39-.45,1,0,.95.1C1008.39,369.65,1009.05,370.79,1007.71,370.93Z" transform="translate(-726 -325.84)"/><path class="cls-98" d="M987.51,370.74c0-1.11,0-2.22,0-3.33,1.26.87.38,2.22.77,3.28Z" transform="translate(-726 -325.84)"/><path class="cls-99" d="M994.33,370.82l.88-.1,1.79.16a1.55,1.55,0,0,0,0,.37A1.75,1.75,0,0,1,994.33,370.82Z" transform="translate(-726 -325.84)"/><path class="cls-100" d="M1010.87,371.08c-1-.53-.52-1.26-1.16-2.48C1011.31,369.6,1010.92,370.32,1010.87,371.08Z" transform="translate(-726 -325.84)"/><path class="cls-101" d="M992,368.9a2.3,2.3,0,0,0-.64,1.85h-.67C990.59,369.81,990.31,368.72,992,368.9Z" transform="translate(-726 -325.84)"/><path class="cls-102" d="M1013,539c.36-1.21-.2-1.72-1.4-1.76.41-2.55,2.08-3.89,4.59-4.35,2.34-.44,4.67-1.09,7.09-.56-1.41,2.5-2.58,5.07-2.37,8C1018.29,539.8,1015.91,538,1013,539Z" transform="translate(-726 -325.84)"/><path class="cls-103" d="M998.23,531.36a7.35,7.35,0,0,1,1.41-5.49c1.26-1.66,1.19-3.63,1.17-5.57,0-.68-.11-1.64.85-1.72s1,.87,1,1.55c0,1.12.29,2.38-.14,3.33-1.57,3.47-2.9,6.93-2.5,10.82.06.59-.24,1.32-1,1.26s-.73-.87-.76-1.45C998.2,533.28,998.23,532.46,998.23,531.36Z" transform="translate(-726 -325.84)"/><path class="cls-104" d="M789.5,337c2.54-3.09,6.51-3.52,9.94-4.08,13.76-2.27,25.3,2.13,33.57,12.93,6.23,8.12,8.38,17.46,5.65,27.6-2.89,10.72-9.6,18.48-20,22.56a34.48,34.48,0,0,1-36.42-6.64c-10.74-9.66-13.08-25.31-8.14-36.29,2.58-5.71,6-10.8,11.43-14.33,1.22-.78,2.31-1.85,4-1.75.61,1.51-.67,2-1.59,2.58-9.28,5.63-13.4,14.42-14.33,24.33-.78,8.38,2.39,16.05,8.67,22.21a19.34,19.34,0,0,0,2.32,2.2c9.38,8.4,20.23,9.78,32.07,6.22,2-.59,4.08-1.06,5.46-2.8,9.23-5.07,13.84-13,15.35-23,2.08-13.77-8.18-28.79-21.6-32.89-7.89-2.42-15.32-1.78-22.85.84C791.87,337.09,790.76,338.07,789.5,337Z" transform="translate(-726 -325.84)"/><path class="cls-105" d="M789.5,337c5.6-2.11,11.23-3.86,17.41-3.74,12.07.25,23.74,8.18,28.65,18.87,3.24,7.05,4.35,14.08,2.09,21.35-2.51,8.06-6.63,15.17-15.16,18.82l-.2-.42c.06-1.54,1.33-2.17,2.36-3,7.45-6.17,12-13.8,12.08-23.48,0-3.79-1.3-7.37-2.46-11-4.18-9-10.87-15-20.94-17.93-13.68-4-31.06,4.07-36.16,17.44-.45,1.17-.59,2.38-.93,3.55-3.72,8.84-1.09,16.79,3.66,24.44.89,1.44,2.62,2.47,2.31,4.49l-.33.37c-7.46-6.38-9.94-14.77-9.24-23.92.52-6.88,3.55-13.08,8-18.61,2.46-3.06,6.22-4.47,8.86-7.24Z" transform="translate(-726 -325.84)"/><path class="cls-105" d="M822.49,392.26c-3.34,3.94-8.3,4.26-12.86,4.79a32.34,32.34,0,0,1-21-4.22,16.31,16.31,0,0,1-4.88-4.26l.34-.3c1.09-.43,1.79.22,2.52.82a26,26,0,0,0,6.77,3.84,29.06,29.06,0,0,0,24.8-.3c1.33-.63,2.71-1.83,4.27-.37Z" transform="translate(-726 -325.84)"/><path class="cls-105" d="M783.79,388.57a1.94,1.94,0,0,1-1.91-1.84h0c1.55-.28,2.18.34,1.9,1.84Z" transform="translate(-726 -325.84)"/><path class="cls-106" d="M775.54,357.24c.66-6.67,4.64-11.51,9.62-15.58a31.52,31.52,0,0,1,24.69-7c7.86,1,14.84,4.36,19.87,10.69,2.17,2.74,4.59,5.35,5.46,8.84a1.12,1.12,0,0,1-.9.23c-1.4-.41-1.74-1.66-2.32-2.73-8-14.62-26.61-19.1-40.73-11.62a27.57,27.57,0,0,0-11.08,10.57c-2,1.87-1.81,5.06-4.16,6.75Z" transform="translate(-726 -325.84)"/><path class="cls-107" d="M834.55,354.16h.63c6.06,13.86.71,27.37-10.53,35.89a21.5,21.5,0,0,0-2.16,2.21c-1.67,0-3,.95-4.39,1.56-8.52,3.63-17,3.86-25.43-.33a.59.59,0,0,1,.1-.86c1.48-.6,2.89-.1,4.24.39,8.69,3.12,17,1.5,24.4-3,10.75-6.53,17-19.32,13-32.19C834.09,356.66,833.1,355.34,834.55,354.16Z" transform="translate(-726 -325.84)"/><path class="cls-106" d="M792.67,392.87v.62c-3.6-.56-5.71-3.64-8.88-4.92a4.44,4.44,0,0,0-1.9-1.84c-.43-1.78-1.9-2.91-2.9-4.33a29.77,29.77,0,0,1-5.13-21.59,5.49,5.49,0,0,1,1.68-3.57h0c1.22.95.71,2.15.58,3.36-.76,7-.38,13.78,4.14,19.74.63.68.82,1.67,1.62,2.25a19.73,19.73,0,0,0,6.22,6,9.34,9.34,0,0,0,2.93,2.15C791.86,391.22,793.09,391.47,792.67,392.87Z" transform="translate(-726 -325.84)"/><path class="cls-108" d="M792.67,392.87c-1.48-1.5-4-1.61-5.08-3.68a38.05,38.05,0,0,1-6.34-6.15A2.14,2.14,0,0,1,780,381.2c-6.51-10.12-6.49-20.36-.63-30.72,1.39-4.13,5-6.48,8.13-9.08,9.19-7.62,26.43-7.93,37.11.31,4.45,3.43,7.23,7.86,10,12.45.44,1.89.82,3.78,1.33,5.64,3.74,13.67-6.32,28.27-17.47,32.86-6.84,2.81-13.89,4-21.17,1.4C795.76,393.54,794.2,393.26,792.67,392.87Z" transform="translate(-726 -325.84)"/><path class="cls-109" d="M779.35,350.48c-2,5.24-4.35,10.36-3.86,16.22.43,5.2,2.3,9.87,4.49,14.5-3.84-3.32-4.56-7.89-5-12.43a40.62,40.62,0,0,1,.57-11.53C777.12,355.15,776.9,352.11,779.35,350.48Z" transform="translate(-726 -325.84)"/><path class="cls-109" d="M781.25,383a36.21,36.21,0,0,1,6.34,6.15A12.78,12.78,0,0,1,781.25,383Z" transform="translate(-726 -325.84)"/><path class="cls-110" d="M834.55,365.6c.82,13.77-12.44,28.4-29.5,28-14.93-.32-28.31-13.1-28.37-28.09s13.13-29.08,31-28.19C820.61,338,835.6,350.32,834.55,365.6Z" transform="translate(-726 -325.84)"/><path class="cls-111" d="M779.35,362.77c-.64-10.59,10.6-22.28,23.1-23.29,12-1,21.17,3.39,27.13,13.69,5,8.68,3.8,20.72-2.85,28.52-7.46,8.75-17,11.57-28.26,9.21-1.55-.33-3.1-.76-3.9-2.33a2,2,0,0,1,1.77-.83c7.77,1.86,15.46,2.15,22.36-2.45,5.59-3.74,9.57-8.79,11-15.41,2.66-10.44-1.69-18.31-10-24.47s-22.36-5.3-30.08,1.76c-3,2.74-6,5.46-6.86,9.67a4.13,4.13,0,0,1-.19.9,22.79,22.79,0,0,0-1.73,3.92C780.62,362.35,780.34,363,779.35,362.77Z" transform="translate(-726 -325.84)"/><path class="cls-112" d="M796.48,388.57h-1.91c-3.3,0-5.52-2.4-7.38-4.21-5.47-5.3-8.66-11.85-8.47-19.61a2.81,2.81,0,0,1,.63-2c1.2-1.69.85-4,2.53-5.53,1.64,1.46.39,3.15.12,4.57a21.19,21.19,0,0,0,1.75,13A24.08,24.08,0,0,0,795,386.54C795.83,387,796.82,387.34,796.48,388.57Z" transform="translate(-726 -325.84)"/><path class="cls-113" d="M796.48,388.57c-2.13-1.67-4.74-2.59-6.82-4.4-8.51-7.41-10.62-16.48-7.78-26.93h0c4.13-12.66,20.77-20.95,35-14,9.58,4.7,16.27,16.18,13.87,26.86a29.32,29.32,0,0,1-7.66,12.79c-6.41,6.43-14.13,7.65-22.66,6.54C799.11,389.3,797.62,389.54,796.48,388.57Z" transform="translate(-726 -325.84)"/><path class="cls-112" d="M830.74,370.14c.28-5.57-.37-10.86-3.1-16-7.48-14-27.1-17.28-38.92-6.38-3,2.76-4.59,6.3-6.84,9.47,1-6.79,6-10.6,11.45-13.77,15.41-9,34.82,1.25,37.78,16.84C831.75,363.68,832,366.9,830.74,370.14Z" transform="translate(-726 -325.84)"/><path class="cls-114" d="M805.62,343.09a22.39,22.39,0,0,1,23.58,22.57c-.32,14-10.65,22.79-23.68,22.7-12.68-.09-23-9.39-23.16-23.12C782.23,353.91,793.21,342.16,805.62,343.09Z" transform="translate(-726 -325.84)"/></svg>