<svg id="Layer_1" data-className
="Layer 1" xmlns="http://www.w3.org/2000/svg" viewBox="0 0 468 293"><defs><style>.cls-1{fill:#94a8ca;}.cls-2{fill:#58954a;}.cls-3{fill:#5797d7;}.cls-4{fill:#92b2d5;}.cls-5{fill:#e7eaeb;}.cls-6{fill:#a3b6d4;}.cls-7{fill:#68a15c;}.cls-8{fill:#7799bd;}.cls-9{fill:#5e9851;}.cls-10{fill:#a0abb8;}.cls-11{fill:#7c8a96;}.cls-12{fill:#377d22;}.cls-13{fill:#a5c254;}.cls-14{fill:#5f6d76;}.cls-15{fill:#bfe161;}.cls-16{fill:#2d3034;}.cls-17{fill:#f4f6f9;}.cls-18{fill:#f1f3f7;}.cls-19{fill:#f4f6f8;}.cls-20{fill:#f4f7f9;}.cls-21{fill:#090909;}.cls-22{fill:#eff2f7;}.cls-23{fill:#f1f4f7;}.cls-24{fill:#f2f4f6;}.cls-25{fill:#f0f3f8;}.cls-26{fill:#f3f4f8;}.cls-27{fill:#aec2dd;}.cls-28{fill:#ecf0f5;}.cls-29{fill:#eff0f3;}.cls-30{fill:#5c5b39;}.cls-31{fill:#5c5a39;}.cls-32{fill:#5c5638;}.cls-33{fill:#b2c0d9;}.cls-34{fill:#5d6b75;}.cls-35{fill:#636041;}.cls-36{fill:#636141;}.cls-37{fill:#bedf62;}.cls-38{fill:#616f79;}.cls-39{fill:#f3f3f3;}.cls-40{fill:#ededed;}.cls-41{fill:#575757;}.cls-42{fill:#b0c0da;}.cls-43{fill:#99afd1;}.cls-44{fill:#9bb1d2;}.cls-45{fill:#a7bad7;}.cls-46{fill:#a3b7d5;}.cls-47{fill:#a8bad7;}.cls-48{fill:#ccd6e5;}.cls-49{fill:#a7a4a3;}.cls-50{fill:#a6a4a7;}.cls-51{fill:#232323;}.cls-52{fill:#e6e6e6;}.cls-53{fill:#f2f2e8;}</style></defs><path className
="cls-1" d="M726.07,565q0-84.75-.07-169.5c0-2.27.66-2.5,2.62-2.49,16,.08,32,.05,47.94.05.08,1.85-1.52,2.24-2.68,2.85a33.59,33.59,0,0,0-7.57,5.25c-11.87,11.3-13.25,30.37-3.19,43.48,8.94,11.66,27.56,16.89,43.15,7.48,12.08-7.3,18.31-25.34,13-38.77a33.48,33.48,0,0,0-15.67-17.68c-1.08-.59-2.65-.82-2.56-2.61q195.33,0,390.65-.05c1.87,0,2.31.42,2.3,2.3-.09,14.41,0,28.82,0,43.23-1.32.08-1.55-1.08-2-1.88-3.82-6.72-7.19-13.69-11-20.44-.2-.37-.37-.75-.58-1.11-1.38-2.42-2.46-2.47-3.86-.09-2.06,3.51-4,7.12-5.88,10.71-7.16,13.43-14.29,26.88-21.55,40.26-2.57,4.75-5.11,9.52-7.57,14.34-2.15,3.91-4.19,7.89-6.34,11.8-.62,1.14-1.09,2.49-2.71,2.6-1.09-.33-1.45-1.29-1.92-2.17-7.16-13.51-14.22-27.08-21.45-40.56a4.78,4.78,0,0,0-.23-.45c-.42-.69-.7-1.66-1.65-1.7s-1.31.91-1.67,1.63c-1.16,2.31-2.47,4.53-3.67,6.81-7.28,13.83-14.71,27.58-22.11,41.34a26.38,26.38,0,0,0-1.13,3c-2.78,3.56-4.6,7.68-6.72,11.62-3.74,6.94-7.45,13.89-11.19,20.82-.55,1-1.06,2.11-2.37,2.39-7-.28-10.58,4.43-8.7,11.37a9.34,9.34,0,0,1,.68,3.13c-.39,1.58-1.77,1.84-3,2.2a208,208,0,0,0-39.93,16c-4.49,2.34-8.78,5-13.24,7.44-1.89.75-3.48.57-4.51-1.42.3-2.54,1.34-4.95,1.11-7.6a9.69,9.69,0,0,0-2.14-5.48,4.9,4.9,0,0,0-6-1.78,4,4,0,0,1-2.17.41c-1.57-.87-1.76-2.51-2.2-4s-.67-2.73-1.08-4.07c-.27-.89-.62-1.93-1.58-2.07-3.11-.45-3.92-3-5.06-5.25-.4-.82-.7-1.68-1.12-2.49A5.1,5.1,0,0,1,969,543c-.89-2.6-2.45-4.21-5.43-3.85a1.8,1.8,0,0,1-.93-.28c-1.48-1.5-2.63-3.41-4.9-3.92a6.07,6.07,0,0,1-3.74-4.34,3.78,3.78,0,0,0-6.53-1.73,28.83,28.83,0,0,1-6.12,4.63c-2.72,1.55-2.54,4.44-2.48,7.13-.21,6.55-.62,13.09-1.13,19.62-.15,1.9-.23,3.8-.28,5.71,0,1.24,0,2.51-.9,3.53a4.57,4.57,0,0,1-3.3.81,43.3,43.3,0,0,0-5.22.34c-3.31.4-4.39-.35-4.94-3.7a155.6,155.6,0,0,0-3.42-15.84c-1-3.85-2.1-7.72-4.3-11.12s-4.53-3.35-6.48.28c-3.24,6-4.53,12.65-6,19.21-.7,3.08-1.21,6.2-1.82,9.3-.21,1-.12,2.5-1.88,2.42-1.41-1.29-1.38-3.14-1.75-4.8a72.3,72.3,0,0,0-4.52-14.73,13.88,13.88,0,0,0-1.9-3.19c-1.68-2-3.36-2-4.91.15a25.53,25.53,0,0,0-3.15,6.47c-2.61,7.13-3.73,14.62-5.41,22a5.74,5.74,0,0,1-7,2.4c-3.63-5.17-6.75-10.69-10.52-15.77-9.22-12.39-19.74-23.38-33.18-31.29a3.88,3.88,0,0,1-1.66-1.47,6.58,6.58,0,0,1,0-3.68,8.31,8.31,0,0,0-1.83-6.53c-2.6-3.29-6.3-3.09-8.71.34-1,1.35-1,3.22-2.52,4.22a4.9,4.9,0,0,1-2.93-.23,60.19,60.19,0,0,0-41.57,4.05c-11.84,5.58-21.73,13.72-30.4,23.45-3.1,3.48-6,7.07-8.84,10.81C727.78,564.1,727.33,565.15,726.07,565Z" transform="translate(-726 -393)"/><path className
="cls-2" d="M994,577a207.22,207.22,0,0,1,53.62-23.59c.93-.26,2-.31,2.55-1.36a12.05,12.05,0,0,1,4.36,3.56c.44,1-.08,2.16.77,3.21.74-1.07.27-2.38.9-3.36,2.39-1.92,4.87-3.75,5.32-7.14a.87.87,0,0,1,1.48-.64,3.1,3.1,0,0,0,3,.61,217.45,217.45,0,0,1,24.79-3,140.68,140.68,0,0,1,15.23,0,81.57,81.57,0,0,1,13,.72,1.74,1.74,0,0,1,1.1,1.27c.58,3.48,2.7,5.93,5.28,8.1.58,1,0,2.3.87,3.42.75-1.07.27-2.38.91-3.34a5.45,5.45,0,0,1,1.7-1.43,7.28,7.28,0,0,0,3.37-5.81c0-.89-.14-2.09,1.33-2.21.81,1.63,2.18,2.21,4,2.54a205,205,0,0,1,54,18,4.72,4.72,0,0,1,2.45,2V677a3.43,3.43,0,0,1-2.87.45c-11.31-1.4-22.66-2.56-34-3.35-9.54-.67-19.07-1.64-28.64-1.71-3.58,0-7.14-.47-10.7-.71-1.43-.37-2.08-1.59-2.8-2.7a214.11,214.11,0,0,0-14.28-19.86,220.55,220.55,0,0,0-21.9-23.23,210.8,210.8,0,0,0-23.46-18.61,220.05,220.05,0,0,0-38.14-20.7,170.19,170.19,0,0,0-20.7-7.34C995.32,578.88,993.85,578.73,994,577Z" transform="translate(-726 -393)"/><path className
="cls-2" d="M726.07,565c5.16-6.75,10.42-13.4,16.59-19.27,10.4-9.89,22-17.78,36.07-21.48a62,62,0,0,1,33.25.66,1.9,1.9,0,0,1,.79,1.73,10.3,10.3,0,0,0,4.41,8.48,2.67,2.67,0,0,1,.85,1.2c.42,1,.07,2.24.7,3.56.85-1.14.37-2.36.8-3.33,2.1-1.8,4-3.8,6.11-5.64,17.53,10,30.28,24.66,41,41.36a42.11,42.11,0,0,1,4,6.61c.52,2-1.21,2.11-2.33,2.51-5,1.79-10,3.56-14.93,5.66a213.31,213.31,0,0,0-98.48,85c-.6,1-1.11,2.08-2.34,2.5-6.57,1-13.21,1.54-19.82,2.21-2.19.22-4.41,1.13-6.64.17Z" transform="translate(-726 -393)"/><path className
="cls-3" d="M726.07,677c3.42-1.07,7-1,10.51-1.42,5.48-.72,11-1.12,16.49-1.66,3.23-2,6.93-1.55,10.44-1.82q16.41-1.27,32.87-1.93c5.9-.23,11.81-.58,17.71-.58q147.17-.1,294.33,0c2.91,0,5.85-.09,8.53,1.36,8.23.39,16.47.59,24.67,1.2,12.92,1,25.87,1.65,38.73,3.34,4.52.59,9.07,1,13.6,1.56,0,2.67,0,5.33,0,8,0,.87-.16,1.17-1,1a7.45,7.45,0,0,0-1.25,0H726.07Z" transform="translate(-726 -393)"/><path className
="cls-4" d="M1119.45,546.47c-4.51.29-9-.52-13.45-.55-.89-1.36.16-2.4.69-3.43,4-7.77,8.27-15.39,12.26-23.16s8.42-15.43,12.41-23.27c.3-.58.5-1.24,1.17-1.55,2.34-1.81,2.85-4.77,4.39-7.08a76,76,0,0,0,3.92-7.42c2.21,1.72,3.39,4.26,5.13,6.36,1.12,1.34,2.14,2.76,3.28,4.08,1.54,1.79,2.22,1.87,3.83.14,3.7-3.94,7.35-7.93,10.83-12.06,4.42-5.27,5.74-5.35,10.13,0q9.07,11,18.37,21.72A23.47,23.47,0,0,1,1194,503v65.48a212.45,212.45,0,0,0-46.51-17.1c-3.72-.86-7.45-1.78-11.23-2.29-2.12-.29-3-1.09-2.8-3.1a2,2,0,0,1-1.13-1.8c-.07-.49-.08-1-.17-1.49-.52-2.76-2.85-5.17-5.19-5.38s-4.63,1.5-5.85,4.25C1120.36,543.16,1120.71,545.08,1119.45,546.47Z" transform="translate(-726 -393)"/><path className
="cls-5" d="M1194,503l-20-23.51c-.32-.38-.62-.78-1-1.15-4-4.43-4.38-4.35-8.26.22-3.7,4.37-7.62,8.55-11.38,12.88-1.49,1.72-2.83,1.9-4.23,0-2.82-3.78-6.12-7.21-8.27-11.47l21-39.17q7.13-13.3,14.25-26.62c.53-1,1.14-2,2.37-2s1.93,1.09,2.49,2.15q6,11.25,11.94,22.48a17.94,17.94,0,0,0,1.09,1.64Z" transform="translate(-726 -393)"/><path className
="cls-6" d="M801.05,393.05c2.21,2.19,5.24,3.07,7.73,4.88a31.58,31.58,0,0,1,12.63,20.23c2.3,11.69-1,22.06-9.34,30.39-5.15,5.16-11.8,8-19.26,9.05-10.24,1.39-18.89-2.18-26.52-8.3-4.36-3.49-7.07-8.48-8.88-13.9-3.46-10.34-1.9-20,3.6-29.15a28.27,28.27,0,0,1,12.15-10.77,8.21,8.21,0,0,0,3.4-2.43Z" transform="translate(-726 -393)"/><path className
="cls-7" d="M1117,670.85c-5.89-.44-11.8-.36-17.7-.36h-278c-14.81,0-29.59.79-44.37,1.56-7.95.41-15.88,1.2-23.82,1.82A196,196,0,0,1,772.67,646a190.52,190.52,0,0,1,13.39-14.7,221.57,221.57,0,0,1,29.69-24.51,215.1,215.1,0,0,1,52.66-26.23c1-.32,2-.48,2.2-1.72a6.33,6.33,0,0,0,6.37-1.94c6.19-1.4,12.29-3.21,18.57-4.25A9.93,9.93,0,0,0,899,571c1.66-.85,1.17-2.55,1.43-3.89,1.56-8,3-16,6-23.6a18.23,18.23,0,0,1,2.91-5.47c1.92-2.23,4-2.17,5.8.17,2.88,3.7,4.05,8.17,5.26,12.55A128.47,128.47,0,0,1,924,568c.22,1.61,1.05,2.17,2.54,1.94a80.41,80.41,0,0,1,9.44-.44c1.75-1.18,3.68-.86,5.6-.74a12.38,12.38,0,0,0,3.74.29c4.35.08,8.66.59,13,.81,5.82,1,11.74,1.43,17.49,2.87a6.5,6.5,0,0,1,2,.22c2,1.84,3.37,4.31,5.52,6.05.54,1,.15,2.14.85,3.36.82-1.05.33-2.36.95-3.28,1.56-1.06,2.89-2.48,4.76-3.08a3.12,3.12,0,0,0,4,1c1.85,2.33,4.8,2.1,7.23,2.88a201.22,201.22,0,0,1,22.71,8.88A219.29,219.29,0,0,1,1053.32,605a198.08,198.08,0,0,1,20.41,15.45c5.4,4.68,10.66,9.51,15.6,14.67a202.71,202.71,0,0,1,21.08,25.77C1112.65,664.15,1114.78,667.52,1117,670.85Z" transform="translate(-726 -393)"/><path className
="cls-8" d="M1119.46,519.53c-1.59,4.08-4,7.75-5.94,11.64-2.48,4.93-5.56,9.55-7.52,14.75-6,.27-12,0-18,.47a222.13,222.13,0,0,0-22.7,2.9c-1.56.3-3.1.71-2.91-1.78a1.59,1.59,0,0,1-.63-1.28,12.54,12.54,0,0,0-3.16-8.29,1,1,0,0,1-.19-.92c1.75-1.62,2.56-3.85,3.66-5.86,4.89-9,9.7-18,14.54-27,.39-.73.66-1.57,1.71-1.6,2.08.55,2.71,2.56,3.87,4,4.23,5.17,3.33,4.84,7.62.3,2.33-2.47,4.57-5,6.77-7.63,2.48-2.92,3.89-2.88,6.36-.05,5.18,5.94,10.14,12.06,15.34,18A3.23,3.23,0,0,1,1119.46,519.53Z" transform="translate(-726 -393)"/><path className
="cls-5" d="M1119.46,519.53q-8.73-10.23-17.44-20.47c-1.72-2-2.36-2.1-4.15-.14-3.29,3.63-6.54,7.31-9.79,11-1.76,2-2.46,2-4.09-.05-1.91-2.4-3.75-4.86-5.62-7.3-.58-1.07.07-1.9.54-2.77q13.1-24.51,26.22-49c.5-.92.84-2.15,2.2-2.08,1.18.07,1.53,1.16,2,2q11.16,21.3,22.32,42.6a10.05,10.05,0,0,0,.89,1.2c0,1.68-1,3-1.76,4.32C1127,505.71,1123.62,512.84,1119.46,519.53Z" transform="translate(-726 -393)"/><path className
="cls-9" d="M899,571c.17,1.89-1.28,2.24-2.56,2.42a159.71,159.71,0,0,0-16.72,3.79c-1,.25-1.92.66-2.78-.23,1.44-9,3.16-18,7-26.41.07-.15.13-.31.21-.45,1-1.8,1.93-3.94,4.36-4s3.5,2.12,4.39,3.92C896.2,556.59,897.8,563.73,899,571Z" transform="translate(-726 -393)"/><path className
="cls-10" d="M958.48,570.5a85.43,85.43,0,0,1-13.65-1,1.71,1.71,0,0,1-.46-1.38,73.9,73.9,0,0,1,2.78-12.66,3,3,0,0,1,1.87-1.92,15.56,15.56,0,0,0,5.34-3.55,8.15,8.15,0,0,1,2.69-.38c.66,0,1.59,0,1.85-.54,1.08-2.38,3.75-2.87,5.32-4.69s3.77-1.27,5.82-.94c.76,1.55,1.57,3.07,2.27,4.65s1.36,2.48,3.25,2.44c1.57,0,2.07,1.42,2.42,2.74.74,2.78,1.14,5.66,2.54,8.24a1.85,1.85,0,0,1-.29,1.63,13.18,13.18,0,0,0-1.75,8.72,1.7,1.7,0,0,1-.41,1.59l-2.09-.06c-1-1.12-.73-2.5-.73-3.8,0-5-2.71-8.81-5.3-12.61-1.52-2.24-5.15-1.63-6.84.72-.85,1.19-1.19,2.78-2.67,3.49a21.81,21.81,0,0,1-3.94.52,6.78,6.78,0,0,0-2.85.81c-.74.42-1.43.94-1.21,1.95s1,.87,1.76,1a7.31,7.31,0,0,1,4.78,2.34A2.27,2.27,0,0,1,958.48,570.5Z" transform="translate(-726 -393)"/><path className
="cls-11" d="M942,569.5l-6,0a7.67,7.67,0,0,0,.46-1.65c.55-9.29,1.06-18.58,1.59-27.86,2.55-1.17,4.13-.62,5.17,1.82a10.09,10.09,0,0,1,.4,1.17,1.85,1.85,0,0,0,2.17,1.57c1.26-.14,1.34-1.11,1.35-2a10.66,10.66,0,0,1,1.53-5.44c2-3.27,2.79-3.69,6.71-3.1,2.81,1.55,2.88,2,1.49,4.85-1.47,3.07-2.43,6.36-3.64,9.54a5.72,5.72,0,0,1-3.8,3.94c-2.23.66-3.3,2.28-3.75,4.52-.67,3.34-1.47,6.65-2.2,10C943.27,567.82,943.22,569,942,569.5Z" transform="translate(-726 -393)"/><path className
="cls-12" d="M978.07,573.5c-1.07-4.37-.54-8.41,2.45-11.94,5.12-3,9.86-.75,10.86,5.32.52,3.14.43,6.29-1.45,9.09-1.13,1.52-2.39,2.84-4.42,3.08a1.81,1.81,0,0,1-2.48,0A9.6,9.6,0,0,1,978.07,573.5Z" transform="translate(-726 -393)"/><path className
="cls-12" d="M1058.46,537c3.45,2.69,4.38,6.34,4,10.49-.84,1.27-.37,2.89-1.27,4.21a8.75,8.75,0,0,1-4.7,3.79,1.74,1.74,0,0,1-2.47,0,8.84,8.84,0,0,1-3.86-3.5,11.67,11.67,0,0,1,0-12.25C1052.07,536.49,1054.65,535.76,1058.46,537Z" transform="translate(-726 -393)"/><path className
="cls-12" d="M825.64,530.9a10.9,10.9,0,0,1-5.62,5.6,1.7,1.7,0,0,1-2.45,0A12,12,0,0,1,812,524.9c.93-1.91,1.35-4.07,3-5.63,2.46-2.29,5.6-2.44,8-.13A8.93,8.93,0,0,1,825.8,528,14,14,0,0,0,825.64,530.9Z" transform="translate(-726 -393)"/><path className
="cls-13" d="M955.57,534.56c-4.92-.21-7.56,2.5-7.6,7.79,0,3-.39,3.34-3,3.2-1.18-.07-1.88-.5-2-1.72-.28-3.05-1.89-4.4-5-3.87-.25-3.82.71-6.89,4.83-8.16a5.42,5.42,0,0,0,3-2.54c1.6-2.75,4.14-2.33,6.59-2.21,1.42.08,1.9,1.23,2,2.44.26,2.32,1.24,4.06,3.54,4.87C957.29,535.34,956.42,534.78,955.57,534.56Z" transform="translate(-726 -393)"/><path className
="cls-14" d="M955.57,534.56l2.47-.2a5.76,5.76,0,0,1,4.49,4.06c-4,.78-4.52,4.25-5.72,7.25-.67,1.67-.9,3.57-2.4,4.83a5.37,5.37,0,0,1-4.24,3.37c-1.66.33-2.42,1.38-2.73,3.07-.77,4.22-1.73,8.41-2.61,12.61a2.58,2.58,0,0,1-2.81,0c1-4.26,2.13-8.48,2.88-12.77.49-2.8,1.72-4.58,4.47-5.25a4,4,0,0,0,2.86-2.69c1.74-3.9,2.37-8.24,4.9-11.85C958,535.66,956.11,535.36,955.57,534.56Z" transform="translate(-726 -393)"/><path className
="cls-15" d="M954.41,550.5c.86-3.6,2.47-7,3.66-10.44.78-2.28,2.88-1.32,4.46-1.64,4.19-.82,6.41,1.3,7.51,5.07-.66.71-1.54.5-2.33.47-1.57-.06-3,0-3.5,1.9a1.39,1.39,0,0,1-1.26,1.07c-1.77-.09-2.44,1-2.89,2.43-.37,1.21-1.41,1.22-2.43,1.2Z" transform="translate(-726 -393)"/><path className
="cls-16" d="M984,424.07c2.88.67,4.66,2.59,4.43,4.77s-2.43,4.11-5.14,4.21c-3.32.11-6.64.05-10,.05q-20.05,0-40.11,0c-2.9,0-4.8-1.54-5.16-4-.31-2.17,1-4.06,3.51-5,.3.17.65.3.6.76a2.14,2.14,0,0,1-.58.76c-2.72,2.52-2.36,4.56,1.07,6a9.35,9.35,0,0,0,2.74.21h39.73a7,7,0,0,0,3.43-.42,4.89,4.89,0,0,1,2.91,0,6,6,0,0,0,3.39-.35,2.55,2.55,0,0,0,.79-4.4c-.64-.61-1.6-.92-1.87-1.89A.9.9,0,0,1,984,424.07Z" transform="translate(-726 -393)"/><path className
="cls-17" d="M926.27,406.5c-.53,1.74-.95,3.07-1.34,4.41-.18.6-.43,1.13-1.16,1.06s-.75-.6-.85-1.08c-.47-2.11-.93-4.21-1.35-6.32-.09-.46-.23-1.08.42-1.25s.86.37,1,.87a12.84,12.84,0,0,0,1.28,3.66c.41-1.18.83-2.36,1.23-3.55.16-.49.34-1,.91-1.05.75-.05.93.56,1.09,1.13a12.69,12.69,0,0,0,1.42,3.87L930,404c.14-.54.43-1,1-.75s.44.65.35,1.06q-.68,3.29-1.4,6.56c-.13.61-.39,1.14-1.12,1.1s-.75-.56-.92-1C927.43,409.64,927.38,408.18,926.27,406.5Z" transform="translate(-726 -393)"/><path className
="cls-18" d="M947.93,412c-4.26.85-3-2.75-3.62-5-1.26.91-.85,2-.83,2.84,0,1.47-.23,2.43-2,2.24-1.41-.15-3.24.52-3.49-1.73-.18-1.73,1-2.25,2.53-2.32.31,0,.68,0,.78-.55-.64-1.14-2.28.25-2.94-1a2.28,2.28,0,0,1,2.83-.86c1.88.76,3,.31,3.91-1.41.08-.16.62-.08.94-.12,1.5,1.34,2.82,2.66,1,4.76-.33.37.19,1.05.57,1.52S948.66,411.25,947.93,412Z" transform="translate(-726 -393)"/><path className
="cls-19" d="M968.41,407.69a7.4,7.4,0,0,1,0-1.49c.21-1-.73-2.65.86-3,1.74-.36,3.67-.54,5.13,1a2,2,0,0,1,.3,2.73,2.49,2.49,0,0,0-.22,3.5c.26.41.88,1.05,0,1.45-.67.32-1-.29-1.3-.82s-.53-1-.79-1.56a1.5,1.5,0,0,0-1.57-.95c-.95.08-.88.78-1,1.44s.33,1.82-.69,1.84c-1.26,0-.72-1.22-.8-1.94A18.4,18.4,0,0,1,968.41,407.69Z" transform="translate(-726 -393)"/><path className
="cls-20" d="M987.13,403.18a25.56,25.56,0,0,1,.36,8c-.06,1-3.34,1.26-4.62.38a3.29,3.29,0,0,1-1.39-3.24,2.58,2.58,0,0,1,2.25-2.59A3.6,3.6,0,0,0,987.13,403.18Z" transform="translate(-726 -393)"/><path className
="cls-21" d="M932.07,424.57l-.52-.48c.66-.06,1.32-.18,2-.18q24.26,0,48.49,0c.66,0,1.32.1,2,.16v.5a2.42,2.42,0,0,1-1.94.69,10.34,10.34,0,0,1-3.92.05c-4.14.37-8.3.16-12.44.17q-14.82,0-29.63,0C934.69,425.47,933.21,425.71,932.07,424.57Z" transform="translate(-726 -393)"/><path className
="cls-22" d="M956.74,410c.6.93,1.48.51,2.24.56.43,0,.9,0,.86.59a1,1,0,0,1-.58.71c-1.75.52-3.3.27-4.3-1.44a3.15,3.15,0,0,1,1.25-4.48,3,3,0,0,1,4.14,1c1,1.53.54,2.39-1.31,2.57C958.28,409.59,957.41,409.19,956.74,410Z" transform="translate(-726 -393)"/><path className
="cls-23" d="M933.18,409.62c.88,1.33,1.85.88,2.7.91.44,0,.9.09.85.63a1,1,0,0,1-.61.69c-1.63.49-3.25.42-4.19-1.18a3.22,3.22,0,0,1,.66-4.48,2.79,2.79,0,0,1,4,.25,2.18,2.18,0,0,1,.77,2.46c-.36.92-1.28.52-2,.59S934.11,409.57,933.18,409.62Z" transform="translate(-726 -393)"/><path className
="cls-24" d="M948.59,403.08c.49,0,1.21-.06,1.23.53,0,1.48.75,1.83,2.15,2,1.77.2,3,4.77,1.78,6.07-.6.61-1.09.27-1.18-.46-.1-.9-.05-1.81-.1-2.72s-.43-1.43-1.36-1.43-1.14.73-1.15,1.52,0,1.49,0,2.23c0,1-.51,1.31-1.41,1.22C946.79,409,948.3,406.06,948.59,403.08Z" transform="translate(-726 -393)"/><path className
="cls-25" d="M992.23,407.67c-.33-.8-.89-.58-1.35-.67s-1.62.43-1.65-.48c0-1.12,1.12-.95,1.9-1a2.2,2.2,0,0,1,2.67,1.7c.32,1.51.86,3.45-.28,4.49-1,.89-2.83.7-4.21-.08a1.68,1.68,0,0,1-.8-1.93,2.07,2.07,0,0,1,1.48-1.53C990.68,407.89,991.5,408.26,992.23,407.67Z" transform="translate(-726 -393)"/><path className
="cls-26" d="M979.23,407.87c-.54-1-1.17-.82-1.73-.87s-1.59.32-1.55-.65c0-.66,1-.77,1.64-.84,1.32-.12,2.6,0,3.07,1.48s.92,3.6-.23,4.72c-.9.88-2.84.63-4.26,0a1.6,1.6,0,0,1-.73-1.73,1.91,1.91,0,0,1,1.47-1.81A18,18,0,0,1,979.23,407.87Z" transform="translate(-726 -393)"/><path className
="cls-27" d="M948.59,403.08q0,4.47-.05,8.94l-.61,0c0-.57-.33-.84-.85-1a1.92,1.92,0,0,1-.94-2.82c2-1.59.51-2.77-.12-4.09C947.84,406.31,947.82,403.63,948.59,403.08Z" transform="translate(-726 -393)"/><path className
="cls-28" d="M961.47,408.78c0-3,.73-3.86,2.74-3.24.75.23,1.08.95.42,1.17-1.87.64-1.59,2.05-1.65,3.44,0,.66.32,1.79-.81,1.72s-.6-1.17-.69-1.85A8.54,8.54,0,0,1,961.47,408.78Z" transform="translate(-726 -393)"/><path className
="cls-29" d="M994.9,408.73c0-2.94.74-3.8,2.75-3.19.32.1.63.2.69.58a.59.59,0,0,1-.45.76c-1.87.26-1.34,1.71-1.48,2.87-.08.75.42,2-.65,2.08-1.41.06-.64-1.35-.84-2.11A4.08,4.08,0,0,1,994.9,408.73Z" transform="translate(-726 -393)"/><path className
="cls-12" d="M1119.45,546.47a12,12,0,0,1,1.77-6.89c1.7-2.62,4.29-3.75,6.78-3a8,8,0,0,1,5,6.56,6.09,6.09,0,0,0,.38,2.9,2,2,0,0,0-.43,1.63c.15,4-1.93,6.5-5.55,7.88a1.72,1.72,0,0,1-2.45,0C1121.3,553.61,1119.69,550.46,1119.45,546.47Z" transform="translate(-726 -393)"/><path className
="cls-30" d="M1054,555.5h2.47c0,1.08,0,2.17,0,3.25a1.23,1.23,0,0,1-2.45,0Z" transform="translate(-726 -393)"/><path className
="cls-31" d="M1125,555.5h2.45v3.24a1.09,1.09,0,0,1-1.23,1.22,1.08,1.08,0,0,1-1.22-1.23Z" transform="translate(-726 -393)"/><path className
="cls-12" d="M765.59,565A10.42,10.42,0,0,1,760,554.9c.15-4.64,3.21-8.84,6.69-8.9,3.87-.07,7.12,3.65,7.32,8.53.18,4.7-1.46,8.42-6,10.44A1.68,1.68,0,0,1,765.59,565Z" transform="translate(-726 -393)"/><path className
="cls-31" d="M817.57,536.48l2.45,0c0,1.14,0,2.29,0,3.43a1,1,0,0,1-1.09,1c-.76,0-1.3-.22-1.32-1.06C817.55,538.76,817.57,537.62,817.57,536.48Z" transform="translate(-726 -393)"/><path className
="cls-32" d="M765.59,565H768c0,1.14,0,2.29,0,3.44a1,1,0,0,1-1.1,1.05c-.75,0-1.32-.19-1.34-1.05C765.57,567.26,765.59,566.11,765.59,565Z" transform="translate(-726 -393)"/><path className
="cls-33" d="M788.87,397c14.88-.32,28.32,12.52,28.11,28-.21,15.69-11.35,28-27.84,28.24-16,.22-28.18-11.51-28.48-28.08A28,28,0,0,1,788.87,397Z" transform="translate(-726 -393)"/><path className
="cls-34" d="M958.48,570.5l-.1-3c-1.11-2.67-.52-4.76,1.83-6.5.56-.91,1.19-1.79,1.66-2.75a5.29,5.29,0,0,1,5.49-3.39c2.57.1,3.63,1.62,4.57,3.55a11.87,11.87,0,0,0,.68,1.33,20.29,20.29,0,0,1,3.37,13.7Z" transform="translate(-726 -393)"/><path className
="cls-12" d="M888.54,598c-6.8-3.28-6.51-11.86-3.43-16.1a6.1,6.1,0,0,1,9.19-.78c4.62,4.82,3.37,15.12-3.31,16.89A1.73,1.73,0,0,1,888.54,598Z" transform="translate(-726 -393)"/><path className
="cls-35" d="M888.54,598H891c0,1.24,0,2.49,0,3.74a1.22,1.22,0,0,1-2.44,0Z" transform="translate(-726 -393)"/><path className
="cls-36" d="M983,579l2.48,0,0,3.23a1.23,1.23,0,0,1-2.45,0Z" transform="translate(-726 -393)"/><path className
="cls-37" d="M960.21,561c-1.08,2-2,4.11-1.83,6.5-1.93,0-3.46-2.16-5.6-1.09-.47-1-2.26-1.53-1.17-3.13a4.9,4.9,0,0,1,3.54-2C956.82,561,958.49,560.49,960.21,561Z" transform="translate(-726 -393)"/><path className
="cls-38" d="M940.51,560a5.7,5.7,0,0,1,1.15-4.4c1-1.36.86-3,.87-4.54,0-.55-.14-1.34.64-1.4,1-.06.8.85.83,1.46a6.07,6.07,0,0,1-.1,2.7,16,16,0,0,0-2,8.79.86.86,0,0,1-.82,1c-.68,0-.59-.67-.6-1.14C940.49,561.8,940.51,561.06,940.51,560Z" transform="translate(-726 -393)"/><path className
="cls-39" d="M932.07,424.57l46.79.07a1.25,1.25,0,0,1-.09,1.19,4.46,4.46,0,0,0-.44,4.92c.48,1,.25,1.55-1,1.54-15.2-.08-30.39.13-45.59-.12a.89.89,0,0,1-.23-.1C927.86,429.84,928.09,426.78,932.07,424.57Z" transform="translate(-726 -393)"/><path className
="cls-40" d="M982.09,424.6l1.91,0c3.25,1.88,4.09,3.26,3.18,5.21-1,2.11-3.82,3-6.73,2.13a6.07,6.07,0,0,1-.9-.41c-1.92-.5-2.35-1.89-2.13-3.63.16-1.25.77-2.38,2.05-2.48s1.08,1.24,1.36,2.06a1.5,1.5,0,0,0,.41.61,6.77,6.77,0,0,0,2.1.74c1,.18-.06-.47.15-.69C983.71,426.66,982,426,982.09,424.6Z" transform="translate(-726 -393)"/><path className
="cls-41" d="M981.06,428.91c-1.62-.59-1.21-1.94-1.18-3.16-2.78,1.49-2.87,3.17-.33,5.75a2.79,2.79,0,0,1-2.55,1.13c-14.46,0-28.93,0-43.39,0a2.54,2.54,0,0,1-2.1-.54h46.76c-2.07-2.73-2-5.22.59-7.43,1.08.69,2.15-.44,3.23,0,1.38.74,2.32,1.71,1.89,3.44-.52.25-.8-.21-1.17-.4-.12,0-.14-.26-.32-.12a2.78,2.78,0,0,1,.66.62C982.8,429.33,981.69,428.47,981.06,428.91Z" transform="translate(-726 -393)"/><path className
="cls-42" d="M941.84,410.06a1.3,1.3,0,0,1-1.61.9c-.62-.1-1.14-.42-.94-1.14s.8-.76,1.4-.72A1.13,1.13,0,0,1,941.84,410.06Z" transform="translate(-726 -393)"/><path className
="cls-43" d="M972.19,407c-1.55.09-2.25-.09-2.25-1.23s.75-1.27,1.63-1.26,1.9.18,1.83,1.41A1.1,1.1,0,0,1,972.19,407Z" transform="translate(-726 -393)"/><path className
="cls-44" d="M984.76,407c1.34,0,1.67.77,1.65,1.9s-.42,1.73-1.58,1.72a1.81,1.81,0,1,1-.07-3.62Z" transform="translate(-726 -393)"/><path className
="cls-45" d="M959.18,407.43a3.11,3.11,0,0,1-3,.44C957.16,406.7,957.93,407,959.18,407.43Z" transform="translate(-726 -393)"/><path className
="cls-46" d="M933.21,407.71c.92-.95,1.66-1,2.55,0A2.36,2.36,0,0,1,933.21,407.71Z" transform="translate(-726 -393)"/><path className
="cls-47" d="M992.35,410.09a1.08,1.08,0,0,1-1.3.84c-.52-.07-1-.34-.93-.93s.65-.89,1.27-.83A.94.94,0,0,1,992.35,410.09Z" transform="translate(-726 -393)"/><path className
="cls-42" d="M978.06,411c-.62,0-1.22-.18-1.3-.86s.5-1,1.11-1,1.41.08,1.42.95C979.29,410.77,978.65,410.93,978.06,411Z" transform="translate(-726 -393)"/><path className
="cls-48" d="M812.55,424.87c.59,13.24-10.95,24.36-24,24.25-12.36-.1-24-11.09-23.51-24.33.45-12.91,10.35-23.55,23.86-23.52C803,401.3,812.91,413.12,812.55,424.87Z" transform="translate(-726 -393)"/><path className
="cls-49" d="M939.63,429.59c.17-2.52,2.22-2.49,3.76-2.25a21.35,21.35,0,0,0,5.29.18c1.65-.16,2.07.64,1.84,2-.58.72-.55-2.06-1.73-.06-1,1.67-3.6.61-5.38.64-1,0-2.39.94-3.42-.17A.41.41,0,0,1,939.63,429.59Z" transform="translate(-726 -393)"/><path className
="cls-50" d="M939.63,429.59l.36.37c-2.43.15-4.9.65-7.27.36-2-.25-1-2.13-1-3.39.76-.06.75.39.82.79.12.6-.25,1.41.63,1.69,1.07.35,1.07-.65,1.52-1.17,1.36-1.56,3.16.26,4.63-.75.28,1.19-1.6.64-1,1.69C938.48,429.47,939.18,429.46,939.63,429.59Z" transform="translate(-726 -393)"/><path className
="cls-51" d="M981.06,428.91c.51-.56,1.59,0,1.87-1a.24.24,0,0,1,.16-.37l.89.48c.33.36.69.7,1,1.09a.68.68,0,0,1-.05,1.07.65.65,0,0,1-1-.09C983.19,429.09,982.08,429.11,981.06,428.91Z" transform="translate(-726 -393)"/><path className
="cls-52" d="M983.09,427.56a1.1,1.1,0,0,0-.16.37c-.91.29-1.84.47-2.23-.69a1,1,0,0,1,.85-1.26C982.87,425.68,983,426.61,983.09,427.56Z" transform="translate(-726 -393)"/><path className
="cls-53" d="M770.54,425.13c-.51-9.26,7.41-18.42,18.29-18.28,11.14.13,18.35,8.4,18.65,18.47.29,9.84-8.75,18.79-18.6,18.68S769.78,435.73,770.54,425.13Z" transform="translate(-726 -393)"/></svg>